<svg width="627" height="406" viewBox="0 0 627 406" fill="none" xmlns="http://www.w3.org/2000/svg">
<path d="M612.052 353.767C598.022 349.797 585.671 343.33 574.751 333.597C548.697 310.418 530.37 278.723 510.222 250.678C503.309 241.01 497.544 233.006 492.536 225.963C492.761 226.283 470.695 195.42 461.667 182.742C460.512 181.142 461.243 178.9 463.103 178.196C471.324 174.93 488.137 163.533 490.029 162.06C503.014 152.071 513.698 139.201 521.117 124.602C527.472 112.053 530.703 97.2619 530.703 80.486C530.703 55.5783 520.508 36.2413 499.539 21.3863C489.959 14.5991 479.384 9.34851 467.932 5.57074C454.908 1.28073 441.076 0 427.36 0C427.36 0 305.734 0.128052 305.734 0C305.734 0 305.266 0 304.433 0C297.507 0 265.239 0.00012207 265.239 0.128174V6.01907C265.239 6.01907 268.176 6.01907 268.183 6.01907C286.991 6.01907 302.175 16.1997 306.779 34.7045C309.082 43.9888 308.857 53.6571 308.626 63.2617C308.703 59.9961 282.752 50.6479 279.392 49.3032C268.388 44.9492 257.063 41.4278 245.54 38.6745C222.494 33.2959 198.665 31.1827 175.022 32.6554C135.598 34.9604 101.657 46.8063 70.4152 71.0097C50.389 86.505 33.7679 106.162 22.3857 128.829C7.53438 158.411 0.00610352 192.218 0.00610352 229.42C0.00610352 250.102 2.92383 268.03 8.70789 284.422C31.4337 348.836 87.4725 388.663 152.598 401.597C158.728 402.814 176.946 406.143 200.736 405.439C257.044 403.774 302.483 376.817 348.621 347.556V220.776H264.964V226.667H265.733C272.146 226.603 288.472 227.243 299.129 238.769C304.798 244.916 308.947 252.215 308.947 272.256C308.947 308.946 308.415 321.559 307.293 330.459C304.433 348.836 290.825 364.844 266.842 378.162C239.532 393.401 222.532 397.371 195.747 397.179C189.476 397.115 165.397 396.154 139.862 385.333C68.889 355.303 37.128 272.704 37.128 200.286C37.128 149.254 52.4731 108.723 82.7016 79.7175C96.3538 66.5914 111.68 55.0659 129.372 48.0226C165.269 33.6799 208.47 37.2654 243.854 51.4161C255.287 55.9622 266.297 61.6612 276.654 68.3203C277.141 68.6404 277.615 68.9604 278.09 69.3445C300.758 86.6967 319.822 112.373 328.697 146.501H349.019V106.994V6.14664H384.371C420.729 6.14664 448.489 15.9438 466.88 35.1528C485.329 54.4899 494.665 76.2602 494.665 99.8233C494.665 123.386 487.477 143.044 473.305 158.091C459.153 173.138 435.85 180.821 404.07 180.821H349.019V186.968C349.019 186.968 395.387 186.968 395.426 186.968C419.819 186.968 439.492 211.491 450.817 230.06C467.823 257.977 485.47 285.575 504.701 312.083C520.578 333.918 538.924 355.816 567.03 360.81C586.428 364.332 606.916 362.347 626.519 362.347V356.392C626.519 357.032 615.15 354.535 612.052 353.767Z" fill="#ffffff" fill-opacity="0.08"/>
</svg>
