<svg width="627" height="406" fill="none" xmlns="http://www.w3.org/2000/svg"><path d="M612.052 353.767c-14.03-3.97-26.381-10.437-37.301-20.17-26.054-23.179-44.381-54.874-64.529-82.919-6.913-9.668-12.678-17.672-17.686-24.715.225.32-21.841-30.543-30.869-43.221-1.155-1.6-.424-3.842 1.436-4.546 8.221-3.266 25.034-14.663 26.926-16.136a110.644 110.644 0 0 0 31.088-37.458c6.355-12.549 9.586-27.34 9.586-44.116 0-24.908-10.195-44.245-31.164-59.1-9.58-6.787-20.155-12.037-31.607-15.815C454.908 1.28 441.076 0 427.36 0c0 0-121.626.128-121.626 0h-1.301c-6.926 0-39.194 0-39.194.128V6.02h2.944c18.808 0 33.992 10.18 38.596 28.686 2.303 9.284 2.078 18.952 1.847 28.557.077-3.266-25.874-12.614-29.234-13.959-11.004-4.354-22.329-7.875-33.852-10.628-23.046-5.38-46.875-7.492-70.518-6.02-39.424 2.305-73.365 14.151-104.607 38.355-20.026 15.495-36.647 35.152-48.03 57.819C7.536 158.411.007 192.218.007 229.42c0 20.682 2.918 38.61 8.702 55.002 22.726 64.414 78.764 104.241 143.89 117.175 6.13 1.217 24.348 4.546 48.138 3.842 56.308-1.665 101.747-28.622 147.885-57.883v-126.78h-83.657v5.891h.769c6.413-.064 22.739.576 33.396 12.102 5.669 6.147 9.818 13.446 9.818 33.487 0 36.69-.532 49.303-1.654 58.203-2.86 18.377-16.468 34.385-40.451 47.703-27.31 15.239-44.31 19.209-71.095 19.017-6.271-.064-30.35-1.025-55.885-11.846C68.89 355.303 37.129 272.704 37.129 200.286c0-51.032 15.345-91.563 45.574-120.569 13.652-13.126 28.978-24.651 46.67-31.694 35.897-14.343 79.098-10.758 114.482 3.393 11.433 4.546 22.443 10.245 32.8 16.904.487.32.961.64 1.436 1.025 22.668 17.352 41.732 43.028 50.607 77.156h20.322V6.147h35.352c36.358 0 64.118 9.797 82.509 29.006 18.449 19.337 27.785 41.107 27.785 64.67 0 23.563-7.188 43.221-21.36 58.268-14.152 15.047-37.455 22.73-69.235 22.73H349.02v6.147h46.407c24.393 0 44.066 24.523 55.391 43.092 17.006 27.917 34.653 55.515 53.884 82.023 15.877 21.835 34.223 43.733 62.329 48.727 19.398 3.522 39.886 1.537 59.489 1.537v-5.955c0 .64-11.369-1.857-14.467-2.625Z" fill="#fff" fill-opacity=".08"/></svg>