<svg width="24" height="24" fill="none" xmlns="http://www.w3.org/2000/svg"><path d="M4.8 12.866c0-.061 0-.092.002-.118a.8.8 0 0 1 .747-.746C5.575 12 5.605 12 5.667 12h12.667c.062 0 .092 0 .119.002a.8.8 0 0 1 .748.864c0 .316 0 .475-.011.652-.168 2.63-2.403 4.952-5.024 5.216-.177.019-.28.023-.487.03-.559.023-1.119.035-1.678.036a46.5 46.5 0 0 1-1.679-.035c-.206-.008-.31-.012-.485-.03-2.623-.265-4.858-2.587-5.024-5.217-.012-.177-.012-.336-.012-.652Z" stroke="#E73D1E" stroke-width="1.2"/><path d="M7.2 18.4 6.4 20m10.4-1.6.8 1.6M4 12h16" stroke="#E73D1E" stroke-width="1.2" stroke-linecap="round"/><path d="m9.6 5.799-.085-.22a2.488 2.488 0 0 0-1.097-1.271 2.39 2.39 0 0 0-1.635-.263 2.433 2.433 0 0 0-1.423.867A2.547 2.547 0 0 0 4.8 6.51V12" stroke="#E73D1E" stroke-width="1.2"/><mask id="a" fill="#fff"><path d="M9.097 5.497c-.4.295-.71.697-.896 1.16a2.752 2.752 0 0 0-.013 2.032.49.49 0 0 0 .456.311.48.48 0 0 0 .19-.04l3.871-1.679a.489.489 0 0 0 .261-.63 2.597 2.597 0 0 0-1.385-1.447 2.478 2.478 0 0 0-1.6-.126l-.884.419Z"/></mask><path d="m9.097 5.497-.514-1.085-.105.05-.093.069.712.966ZM8.2 6.657l1.112.45.002-.004L8.2 6.657ZM8.188 8.69l-1.117.437 1.117-.437Zm.646.271.477 1.101-.477-1.1Zm3.871-1.679L12.23 6.18h-.001l.477 1.101Zm.261-.63-1.12.43.002.006 1.118-.436Zm-1.385-1.447.477-1.101-.477 1.1Zm-1.6-.126-.3-1.162-.111.029-.104.049.514 1.084Zm-1.596-.547a3.879 3.879 0 0 0-1.298 1.68l2.228.892a1.48 1.48 0 0 1 .494-.64L8.385 4.53ZM7.088 6.207a3.952 3.952 0 0 0-.017 2.919l2.235-.873a1.552 1.552 0 0 1 .007-1.146l-2.225-.9Zm-.017 2.92c.082.21.205.401.363.563l1.72-1.674a.71.71 0 0 1 .152.236l-2.235.875Zm.363.563c.158.162.347.291.556.379l.928-2.213a.713.713 0 0 1 .235.16L7.434 9.69Zm.556.379c.21.088.434.132.661.131l-.014-2.4c.097 0 .193.018.281.056l-.928 2.213Zm.661.131c.227-.001.452-.049.66-.139L8.357 7.86a.716.716 0 0 1 .28-.059l.014 2.4Zm.66-.139 3.872-1.679-.955-2.202-3.872 1.68.955 2.201Zm3.871-1.679c.404-.174.722-.5.889-.903l-2.217-.92a.711.711 0 0 1 .375-.38l.953 2.203Zm.889-.903c.167-.404.172-.856.014-1.263l-2.237.87a.706.706 0 0 1 .006-.526l2.217.919Zm.015-1.259a3.804 3.804 0 0 0-.8-1.263l-1.734 1.66c.127.133.228.291.294.465l2.24-.862Zm-.8-1.263a3.778 3.778 0 0 0-1.228-.854l-.954 2.202c.168.072.32.178.448.312l1.733-1.66Zm-1.229-.855a3.677 3.677 0 0 0-2.376-.186l.598 2.324c.275-.07.565-.048.826.065l.952-2.203Zm-2.59-.108-.884.418 1.028 2.17.883-.42-1.028-2.168Z" fill="#E73D1E" mask="url(#a)"/></svg>