<svg width="25" height="24" fill="none" xmlns="http://www.w3.org/2000/svg"><path d="M2.75 19.5v-5.25a3.009 3.009 0 0 1 3-3h13.5a3.009 3.009 0 0 1 3 3v5.25m-3.75-8.25H5V6.375A1.88 1.88 0 0 1 6.875 4.5h11.25A1.88 1.88 0 0 1 20 6.375v4.875h-1.5Z" stroke="#E73D1E" stroke-width="1.2" stroke-linecap="round" stroke-linejoin="round"/><path d="M2.75 19.5v-.375A1.128 1.128 0 0 1 3.875 18h17.25a1.128 1.128 0 0 1 1.125 1.125v.375m-16.5-8.25v-.75A1.504 1.504 0 0 1 7.25 9H11a1.504 1.504 0 0 1 1.5 1.5m0 0v.75m0-.75A1.504 1.504 0 0 1 14 9h3.75a1.504 1.504 0 0 1 1.5 1.5v.75" stroke="#E73D1E" stroke-width="1.2" stroke-linecap="round" stroke-linejoin="round"/></svg>