<svg xmlns="http://www.w3.org/2000/svg" width="24" height="24" viewBox="0 0 256 256" xml:space="preserve"><g style="stroke:none;stroke-width:0;stroke-dasharray:none;stroke-linecap:butt;stroke-linejoin:miter;stroke-miterlimit:10;fill:none;fill-rule:nonzero;opacity:1"><path d="M66.31 44.465a2 2 0 0 0-2.818.239L47 64.261V2a2 2 0 0 0-4 0v62.261L26.508 44.705a2 2 0 1 0-3.058 2.578l20.021 23.741c.016.019.037.032.053.051.058.064.12.121.185.177.041.034.079.07.122.101.072.052.149.095.228.138.042.023.082.049.126.068.092.041.19.071.289.098.035.01.068.025.104.032.136.029.276.046.421.046.145 0 .285-.017.421-.046.036-.008.07-.023.105-.033.098-.027.195-.056.287-.097.045-.02.086-.047.129-.07.077-.042.153-.084.224-.135.045-.032.085-.069.127-.105.063-.054.124-.11.18-.172.017-.019.039-.033.056-.053L66.55 47.283a2 2 0 0 0-.24-2.818z" style="stroke:none;stroke-width:1;stroke-dasharray:none;stroke-linecap:butt;stroke-linejoin:miter;stroke-miterlimit:10;fill:#e73d1e;fill-rule:nonzero;opacity:1" transform="matrix(2.81 0 0 2.81 1.407 1.407)"/><path d="M82.295 90H7.706a2 2 0 0 1-2-2V65.892a2 2 0 0 1 4 0V86h70.589V65.892a2 2 0 0 1 4 0V88a2 2 0 0 1-2 2z" style="stroke:none;stroke-width:1;stroke-dasharray:none;stroke-linecap:butt;stroke-linejoin:miter;stroke-miterlimit:10;fill:#e73d1e;fill-rule:nonzero;opacity:1" transform="matrix(2.81 0 0 2.81 1.407 1.407)"/></g></svg>