<svg width="25" height="24" fill="none" xmlns="http://www.w3.org/2000/svg"><path d="M7.35 20.1h-2.6a.87.87 0 0 0-.641.259.862.862 0 0 0-.259.64c0 .258.087.47.259.642a.865.865 0 0 0 .641.259h3.5a.864.864 0 0 0 .641-.258A.869.869 0 0 0 9.15 21v-3.6h3.6a.864.864 0 0 0 .641-.258.868.868 0 0 0 .259-.642v-3.6h3.6a.864.864 0 0 0 .641-.258.868.868 0 0 0 .259-.642V8.4h3.6a.864.864 0 0 0 .641-.258.868.868 0 0 0 .259-.642.9.9 0 0 0-.9-.9h-4.5a.872.872 0 0 0-.641.259.865.865 0 0 0-.259.641v3.6h-3.6a.873.873 0 0 0-.641.259.865.865 0 0 0-.259.641v3.6h-3.6m-.9 4.5-.1-3.6c0-.283.096-.52.288-.712a.973.973 0 0 1 .712-.288v.1m-.9 4.5v-3.6c0-.258.086-.47.259-.641a.873.873 0 0 1 .641-.259m-.9 4.5.9-4.5m10-7v-.1h3.5c.283 0 .52-.095.712-.287a.968.968 0 0 0 .288-.713 1 1 0 0 0-1-1h-4.5l1 2.1Zm0 0V12a.968.968 0 0 1-.288.713.964.964 0 0 1-.712.287l1-4.4Z" fill="#E73D1E" stroke="#E3E2E2" stroke-width=".2"/></svg>