<svg xmlns="http://www.w3.org/2000/svg" fill="none" viewBox="0 0 627 406"><path fill="#8D8E95" fill-opacity=".1" d="M612 353.8c-14-4-26.3-10.5-37.2-20.2-26.1-23.2-44.4-54.9-64.6-83L492.5 226l-30.8-43.3a3 3 0 0 1 1.4-4.5c8.2-3.3 25-14.7 27-16.1 13-10 23.6-22.9 31-37.5a96.7 96.7 0 0 0 9.6-44.1c0-25-10.2-44.3-31.2-59.1A117 117 0 0 0 427.4 0h-123l-39.2.1v6h3c18.8 0 34 10.1 38.6 28.6 2.3 9.3 2 19 1.8 28.6.1-3.3-25.8-12.7-29.2-14A244 244 0 0 0 175 32.7 181.4 181.4 0 0 0 70.4 71a169.8 169.8 0 0 0-48 57.8A222 222 0 0 0 0 229.4c0 20.7 3 38.6 8.7 55 22.7 64.4 78.8 104.3 143.9 117.2 6.1 1.2 24.3 4.5 48.1 3.8 56.3-1.6 101.8-28.6 148-57.8V220.8H265v5.9h.7c6.4-.1 22.8.5 33.4 12 5.7 6.2 9.8 13.5 9.8 33.6 0 36.6-.5 49.3-1.6 58.2-2.9 18.3-16.5 34.3-40.5 47.7-27.3 15.2-44.3 19.2-71 19-6.3 0-30.4-1-56-11.9-71-30-102.7-112.6-102.7-185 0-51 15.4-91.6 45.6-120.6 13.7-13.1 29-24.6 46.7-31.7 35.9-14.3 79-10.7 114.5 3.4a191.9 191.9 0 0 1 34.2 18c22.7 17.3 41.7 43 50.6 77.1H349V6.1h35.4c36.3 0 64 9.8 82.5 29a92 92 0 0 1 27.8 64.7 82 82 0 0 1-21.4 58.3c-14.1 15-37.4 22.7-69.2 22.7h-55v6.2h46.3c24.4 0 44 24.5 55.4 43 17 28 34.7 55.6 53.9 82 15.9 22 34.2 43.8 62.3 48.8 19.4 3.5 40 1.5 59.5 1.5v-6c0 .7-11.4-1.8-14.4-2.5Z"/></svg>