<svg width="217" height="50" fill="none" xmlns="http://www.w3.org/2000/svg"><g clip-path="url(#a)" fill="#E3E2E2"><path d="M4.291 46.124c.376-.315.563-.76.563-1.336 0-.589-.187-1.04-.563-1.355-.375-.314-.918-.472-1.629-.472H.757v3.635h1.905c.71 0 1.254-.157 1.63-.472Zm.543-3.163c.519.443.779 1.052.779 1.827 0 .776-.26 1.385-.78 1.824-.518.44-1.235.66-2.15.66H.757v2.296H0v-7.274h2.683c.915 0 1.632.222 2.15.667Zm8.856 3.168c.375-.317.562-.765.562-1.34 0-.59-.187-1.041-.563-1.356-.375-.314-.918-.472-1.628-.472h-1.905v3.646h1.905c.71 0 1.253-.16 1.628-.478Zm.604 3.44-1.639-2.337c-.185.02-.375.03-.573.03h-1.926v2.306h-.758v-7.274h2.684c.914 0 1.632.222 2.15.667.52.443.779 1.052.779 1.827 0 .57-.142 1.048-.425 1.44-.284.392-.689.674-1.214.846l1.752 2.494h-.83Zm9.627-.667v.664h-5.07v-7.274h4.917v.667h-4.159v2.587h3.708v.654h-3.708v2.702h4.312Zm11.271-6.61v7.274h-.727v-5.818l-2.817 4.895h-.358l-2.817-4.864v5.787h-.727v-7.274h.624l3.115 5.394 3.083-5.394h.624Zm4.394 0h.757v7.274h-.757v-7.274Zm5.857 6.526c-.52-.54-.779-1.326-.779-2.358v-4.167h.758v4.136c0 .846.188 1.475.563 1.891.376.416.919.625 1.63.625.716 0 1.262-.209 1.638-.625.376-.416.564-1.045.564-1.892v-4.135h.737v4.166c0 1.032-.258 1.819-.773 2.36-.516.54-1.238.81-2.167.81-.928 0-1.652-.27-2.17-.81Zm16.886-6.526v7.274H61.6v-5.818l-2.817 4.895h-.358l-2.816-4.864v5.787h-.727v-7.274h.624l3.114 5.394 3.083-5.394h.625Zm13.415 3.835c.376-.317.563-.765.563-1.34 0-.59-.187-1.041-.563-1.356-.375-.314-.918-.472-1.629-.472h-1.904v3.646h1.904c.71 0 1.254-.16 1.63-.478Zm.605 3.44-1.64-2.337a5.29 5.29 0 0 1-.573.03h-1.925v2.306h-.758v-7.274h2.683c.915 0 1.632.222 2.151.667.52.443.779 1.052.779 1.827 0 .57-.143 1.048-.425 1.44-.284.392-.689.674-1.214.846l1.751 2.494h-.83Zm9.619-.665v.664h-5.07v-7.274h4.917v.667h-4.159v2.587h3.708v.654h-3.708v2.702h4.312ZM94.022 47l-1.72-3.906L90.583 47h3.44Zm.277.624h-3.994l-.86 1.942h-.789l3.278-7.274h.748l3.277 7.274h-.8l-.86-1.942Zm4.889-5.332h.757v6.61h4.015v.664h-4.772v-7.274Zm17.889 6.61v.664h-5.069v-7.274h4.916v.667h-4.159v2.587h3.708v.654h-3.708v2.702h4.312Zm4.281.468c-.488-.173-.865-.401-1.131-.687l.296-.591c.26.263.604.476 1.035.637.43.165.874.246 1.331.246.642 0 1.123-.12 1.445-.358.32-.24.481-.55.481-.93 0-.29-.087-.523-.261-.696a1.763 1.763 0 0 0-.64-.401 10.414 10.414 0 0 0-1.056-.306 11.16 11.16 0 0 1-1.291-.4 2.124 2.124 0 0 1-.824-.587c-.229-.264-.342-.62-.342-1.07 0-.368.095-.703.286-1.004.191-.301.485-.54.88-.722.397-.18.889-.27 1.476-.27.41 0 .81.057 1.203.173.393.113.733.27 1.019.472l-.256.613a3.457 3.457 0 0 0-.962-.452 3.501 3.501 0 0 0-1.004-.15c-.628 0-1.101.121-1.419.367a1.151 1.151 0 0 0-.476.953c0 .29.087.522.261.7.174.177.393.312.656.405.262.093.616.195 1.06.306.526.132.95.263 1.275.39.325.128.599.323.825.582.224.26.337.611.337 1.054 0 .368-.098.702-.291 1.004-.195.3-.494.54-.897.717-.402.175-.897.264-1.485.264a4.558 4.558 0 0 1-1.531-.26Zm9.287-6.409h-2.52v-.667h5.797v.667h-2.519v6.607h-.758v-6.607ZM141.409 47l-1.719-3.906L137.968 47h3.441Zm.277.624h-3.994l-.861 1.942h-.788l3.278-7.274h.747l3.278 7.274h-.799l-.861-1.942Zm6.287-4.664h-2.52v-.668h5.798v.667h-2.521v6.607h-.757V42.96Zm11.593 5.942v.664h-5.07v-7.274h4.916v.667h-4.158v2.587h3.707v.654h-3.707v2.702h4.312ZM24.817 14.056h-7.193v.426H18.9c.456-.007 1.616.04 2.375.87.403.442.698.97.698 2.415 0 2.642-.038 4.238-.118 4.88-.204 1.324-1.17 2.475-2.877 3.438-1.942 1.097-3.151 1.382-5.056 1.368a10.905 10.905 0 0 1-3.975-.852c-4.171-1.788-5.825-6.029-6.096-6.724-.626-1.604-.896-3.347-.981-3.912-.063-.415-.23-1.545-.23-2.7 0-3.675 1.091-6.599 3.241-8.688.972-.944 2.062-1.774 3.32-2.282 2.553-1.033 5.626-.775 8.142.241.814.329 1.596.74 2.333 1.22.036.023.066.048.101.071 1.603 1.245 2.95 3.086 3.586 5.52v.04h.014v.002-.002h.407v-5.71h-.421v.018c-.552.392-.58.346-1.275-.153a11.93 11.93 0 0 0-1.112-.68c-2.392-1.332-5.212-1.688-7.906-1.665-.826.007-1.655.027-2.473.155-2.871.45-4.874 2.038-5.59 2.599a12.217 12.217 0 0 0-3.415 4.165C.535 10.246 0 12.686 0 15.365c0 1.493.207 2.782.62 3.965 1.615 4.639 5.6 7.51 10.233 8.443.436.087 1.731.326 3.423.275a14.908 14.908 0 0 0 4.057-.678 11.05 11.05 0 0 0 1.13-.423c.37-.163.704-.317 1-.468a33.912 33.912 0 0 0 1.571-.828l2.79-1.79v-1.387l-.007-.137v-8.281Zm120.767 9.864-.03-18.686c0-1.446.295-1.974.698-2.415.759-.83 2.355-.87 2.355-.87v-.426h-8.919v.434h.124c1.104.08 2.264.495 2.693 1.618.199.523.236 1.103.236 1.659l.03 18.686c0 1.445-.295 1.973-.698 2.414-.759.83-2.355.87-2.355.87v.427h8.919v-.426s-1.596-.04-2.355-.87c-.403-.442-.698-.97-.698-2.415ZM41.2 14.551h-3.97l.011-12.584h2.557c2.586 0 4.56.703 5.867 2.09 1.313 1.393 1.978 2.96 1.978 4.661 0 1.698-.512 3.111-1.52 4.2C45.117 14 43.46 14.55 41.2 14.55Zm14.79 12.465c-.48-.137-.93-.276-1.372-.517-.891-.49-1.649-1.203-2.297-1.985-1.289-1.55-2.409-3.284-3.573-4.929-.492-.693-.903-1.274-1.258-1.779v.001l-2.402-3.408c.219-.072.444-.153.675-.256 1.436-.638 2.37-1.61 2.948-2.362.077-.095.153-.197.229-.305.028-.04.072-.094.098-.132l-.004-.006c.167-.253.332-.524.489-.838.452-.9.681-1.97.681-3.176 0-1.796-.724-3.19-2.216-4.26a8.394 8.394 0 0 0-2.248-1.141c-.926-.31-1.91-.4-2.885-.4H37.12v.008l-5.796-.008v.434h.21c.512.011 1.504.126 2.166.87.491.555.698 1.19.698 2.415a730252.37 730252.37 0 0 0 .01 18.679c0 1.445-.295 1.973-.699 2.414-.758.83-2.354.87-2.354.87v.426h8.919v-.425s-1.596-.041-2.355-.871c-.403-.441-.698-.969-.698-2.414v-.713l.008-8.212h3.355c.851 0 2.475.697 3.827 2.914.74 1.247 1.496 2.485 2.285 3.7a48.859 48.859 0 0 0 1.906 2.76c.473.629.966 1.25 1.522 1.807.47.47 1.026.839 1.635 1.096.686.291 1.489.336 2.212.358.525.017 1.05 0 1.576 0h1.474v-.425c0 .043-.81-.135-1.03-.19Zm25.178-6.471c-.825 2.2-2.018 4.17-4.02 5.402-1.784 1.117-3.626 1.684-5.471 1.684-1.614 0-3.122-.339-4.481-1.004-1.358-.666-2.497-1.528-3.384-2.565a15.798 15.798 0 0 1-2.253-3.49c-1.158-2.401-1.747-5.019-1.747-7.336 0-3.757.99-6.653 2.943-8.606 1.936-1.939 4.307-2.92 7.048-2.92 3.466 0 6.418 1.324 8.776 3.936 2.36 2.617 3.314 6.314 3.314 10.99 0 1.398-.244 2.713-.725 3.909Zm-.905-16.2c-.916-.874-2.19-1.625-3.786-2.23-1.607-.61-3.44-.92-5.449-.92-4.306 0-7.672 1.319-10.003 3.918-2.329 2.598-3.51 5.978-3.51 10.05 0 2.245.473 4.35 1.405 6.253.93 1.9 2.413 3.5 4.408 4.755 2.004 1.262 4.424 1.901 7.195 1.901 5.53 0 9.516-2.181 11.847-6.485 1.225-2.276 1.846-5.111 1.846-8.426 0-1.86-.547-3.804-1.628-5.78a12.538 12.538 0 0 0-2.325-3.035Zm91.99 20.233c-1.74 1.74-4.165 2.594-6.612 2.594h-3.911c-.516-.063-1.454-.254-1.987-.838-.403-.44-.699-.968-.699-2.414l-.029-18.686c0-1.446.295-1.974.698-2.415.758-.83 2.355-.87 2.355-.87v-.426h-8.92v.434h.125c1.103.08 2.263.495 2.692 1.618.2.523.236 1.103.236 1.659l.031 18.686c0 1.446-.296 1.973-.699 2.414-.758.83-2.355.87-2.355.87v.427h19.62v-3.374h-.238c-.1.109-.202.216-.307.32Zm22.758 0c-1.74 1.74-4.166 2.594-6.612 2.594h-3.911c-.516-.063-1.454-.254-1.987-.838-.403-.44-.699-.968-.699-2.414l-.03-18.686c0-1.446.296-1.974.699-2.415.758-.83 2.354-.87 2.354-.87v-.426h-8.919v.434h.124c1.104.08 2.264.495 2.693 1.618.2.523.236 1.103.236 1.659l.03 18.686c0 1.446-.295 1.973-.698 2.414-.758.83-2.355.87-2.355.87v.427h19.62v-3.374h-.239a9.4 9.4 0 0 1-.306.32Zm21.104-.321c-.1.109-.202.216-.307.32-1.74 1.74-4.165 2.595-6.612 2.595h-2.864c-.516-.063-1.454-.254-1.987-.838-.403-.44-.699-.968-.699-2.414l-.015-9.618 6.066-.01c1.429 0 1.951.3 2.386.707.821.767.862 2.382.862 2.382h.42v-6.633h-.429v.126c-.079 1.117-.489 2.29-1.599 2.724-.516.202-1.091.239-1.64.239l-6.067.01-.014-8.613c0-1.446.296-1.974.699-2.415.558-.61 1.565-.792 2.061-.847l5.568-.009c1.429 0 1.951.299 2.387.707.82.767.86 2.382.86 2.382h.422v-3.53H197.75v.435h.125c1.103.08 2.263.495 2.692 1.618.2.523.237 1.103.237 1.659l.029 18.686c0 1.446-.295 1.973-.698 2.414-.758.83-2.355.87-2.355.87v.427h18.573v-3.374h-.238ZM97.65 12.244a48.109 48.109 0 0 1-3.285-1.156c-1.1-.432-1.996-1.056-2.664-1.852-.696-.832-1.05-1.936-1.05-3.283 0-1.397.606-2.542 1.799-3.402 1.133-.816 2.638-1.229 4.475-1.229 1.856 0 3.528.656 4.969 1.949.542.495.876.807 1.004.935.097.099.275.305.692.962.182.29.347.6.501.921.157.396.298.806.412 1.242v.04h.014v.001-.002h.407V2.475h-.421v.018c-.504.359-.594.332-1.132-.052l-1.551-.736-1.046-.33c-1.278-.406-2.388-.611-3.3-.611-2.485 0-4.525.653-6.064 1.94-1.522 1.274-2.262 2.95-2.262 5.121 0 2.138 1.049 3.805 3.207 5.097 1.301.77 3.848 1.798 7.566 3.056a7.473 7.473 0 0 1 2.867 1.85c.876.9 1.32 2.033 1.32 3.369 0 1.783-.638 3.246-1.897 4.347-1.226 1.075-2.877 1.62-4.907 1.62-2.02 0-3.771-.558-5.206-1.657-.58-.434-1.126-1.02-1.639-1.73-.016-.022-.032-.042-.047-.065-.032-.043-.061-.093-.092-.137a7.708 7.708 0 0 1-.64-1.228c-.26-.65-.385-.99-.423-1.151-.048-.196-.203-.917-.165-.917h-.37v1.313c0 .468-.015.937 0 1.404.019.645.058 1.36.31 1.971a4.59 4.59 0 0 0 .955 1.457l.013.012a.25.25 0 0 0 .018.017c1.034.545 2.088.923 3.1 1.104 1.026.185 2.415.279 4.13.279 2.376 0 4.391-.75 5.989-2.229 1.598-1.48 2.374-3.435 2.374-5.977 0-1.503-.451-2.723-1.378-3.73-1.4-1.485-3.617-2.715-6.583-3.656Zm33.384-10.295c.084.003.168.01.252.02.012 0 .035.005.049.006.279.038.642.133 1.002.377.167.114.317.248.404.351.551.65.191 1.93.011 2.582-.275.66-.561 1.314-.86 1.964-.305.665-.612 1.33-.92 1.993-.371.8-.743 1.598-1.115 2.397l-1.217 2.61-1.228 2.635-1.149 2.466c-.263.565-1.765 3.826-2.467 5.356-.897-2.1-8.072-17.327-8.894-19.265a45.18 45.18 0 0 1-.578-1.518c-.089-.247-.181-.503-.191-.769a.684.684 0 0 1 .027-.23c.136-.464.819-.654 1.355-.804a5 5 0 0 1 1.061-.171v-.426h-8.92v.434h.125c.629.045 1.26.22 1.78.553.003-.004.264.168.387.27 1.16.966 1.897 2.13 2.372 3.187 1.294 2.887 6.315 13.545 7.844 16.92l2.171 4.744h.635l2.171-4.743c1.529-3.377 6.549-14.034 7.843-16.92.477-1.057 1.213-2.222 2.373-3.188.124-.102.384-.274.387-.27.52-.332 1.151-.508 1.78-.553h.124v-.434h-6.614v.426Z"/></g><defs><clipPath id="a"><path fill="#fff" d="M0 0h217v50H0z"/></clipPath></defs></svg>