<svg viewBox="0 0 24 24" preserveAspectRatio="xMidYMin meet" xmlns="http://www.w3.org/2000/svg">
    <defs>
        <style>
            .sprite {
                display: none;
            }

            .sprite:target {
                display: inline;
            }
        </style>
    </defs>

    
    <symbol viewBox="0 0 217 28" class="sprite" id="top">
        <path class="test"
                d="M24.9637 14.2189H17.7516V14.6394H19.0308C19.4881 14.6329 20.6516 14.6794 21.412 15.4989C21.8161 15.9343 22.1123 16.455 22.1123 17.8822C22.1123 20.4897 22.0736 22.0656 21.9941 22.7C21.7899 24.0064 20.82 25.1419 19.1097 26.0931C17.1627 27.1756 15.9502 27.4572 14.0404 27.4429C13.5924 27.4392 11.8761 27.3706 10.0554 26.602C5.87306 24.837 4.21447 20.6511 3.94261 19.9652C3.31534 18.3815 3.04442 16.6609 2.95931 16.1035C2.89664 15.6939 2.72985 14.5779 2.72985 13.4373C2.72985 9.81073 3.8229 6.92441 5.97844 4.86222C6.9527 3.93034 8.04544 3.11117 9.30715 2.60936C11.8664 1.5896 14.9476 1.84485 17.4704 2.84785C18.286 3.17204 19.0707 3.57882 19.8096 4.05175C19.8451 4.07442 19.8753 4.09957 19.9106 4.12224C21.5177 5.35129 22.8683 7.16848 23.5058 9.5707V9.61013H23.5199C23.5199 9.61076 23.5202 9.61138 23.5205 9.612V9.61013H23.928V3.9735H23.5058V3.99151C22.9528 4.37904 22.9244 4.3334 22.2276 3.84059C21.971 3.65832 21.5994 3.43629 21.1131 3.16955C18.7146 1.85448 15.8866 1.50297 13.1861 1.52625C12.3578 1.53278 11.5263 1.55234 10.7067 1.67872C7.82783 2.12246 5.82006 3.69061 5.10269 4.24427C3.67481 5.34726 2.48979 6.74493 1.67827 8.35562C0.618889 10.4588 0.0820312 12.8672 0.0820312 15.5107C0.0820312 16.9851 0.289666 18.257 0.703066 19.4246C2.32299 24.0039 6.31888 26.8377 10.9632 27.7587C11.4003 27.8454 12.6988 28.0804 14.3955 28.0301C15.7756 27.9894 17.144 27.7718 18.4624 27.3609C18.8512 27.2408 19.2291 27.102 19.5948 26.9439C19.9673 26.7831 20.3012 26.6306 20.5983 26.4812C20.9011 26.3322 21.1957 26.1822 21.4853 26.0331C21.7687 25.8844 21.9991 25.7611 22.1734 25.6642L24.9699 23.8974V22.5286C24.9677 22.4835 24.9658 22.4382 24.9637 22.3932V14.2189Z"
                fill="#1A1A1A" />


              <path
                d="M41.3929 14.5461H37.4129L37.4248 2.12416H39.9878C42.5807 2.12416 44.5601 2.81849 45.8708 4.18759C47.1864 5.56197 47.8533 7.10963 47.8533 8.78832C47.8533 10.4648 47.3401 11.8594 46.3297 12.9332C45.3205 14.003 43.6591 14.5461 41.3929 14.5461ZM56.2236 26.8506C55.7428 26.7149 55.2908 26.578 54.8477 26.3395C53.9542 25.8566 53.1944 25.1523 52.5441 24.3807C51.2528 22.8507 50.1295 21.1385 48.9619 19.5154C48.4687 18.8307 48.0575 18.2578 47.7011 17.7594V17.76C47.7192 17.7851 45.6769 14.933 45.2925 14.3961C45.5122 14.3247 45.7377 14.2445 45.9699 14.143C47.4096 13.5133 48.3459 12.5544 48.9254 11.8116C49.0028 11.7178 49.0788 11.6169 49.1546 11.5104C49.1833 11.4703 49.2272 11.4182 49.2534 11.3806C49.2519 11.3781 49.25 11.3762 49.2488 11.3741C49.4165 11.125 49.5814 10.8567 49.7392 10.5474C50.1925 9.65872 50.4222 8.60294 50.4222 7.41177C50.4222 5.6396 49.6958 4.26398 48.2006 3.20727C47.5169 2.72471 46.7637 2.34897 45.9462 2.08068C45.0178 1.77544 44.0314 1.68632 43.0537 1.68632H37.3029V1.69408L31.4922 1.68632V1.69408V2.11453H31.7023C32.2158 2.1254 33.2106 2.23843 33.8741 2.97406C34.367 3.52059 34.574 4.14753 34.574 5.35734C34.574 5.65761 34.5827 23.0914 34.5827 23.0914C34.5827 23.0914 34.5836 23.5451 34.5836 23.7947C34.5836 25.2216 34.2878 25.7426 33.8834 26.178C33.123 26.9972 31.5227 27.0372 31.5227 27.0372V27.4577H40.4651V27.0372C40.4651 27.0372 38.8648 26.9972 38.1041 26.178C37.7 25.7426 37.4039 25.2216 37.4039 23.7947C37.4039 23.5451 37.4048 23.0914 37.4048 23.0914L37.4123 14.9851H40.7759C41.6295 14.9851 43.2576 15.6733 44.6128 17.8612C45.3542 19.0925 46.1127 20.3144 46.904 21.5149C47.5141 22.4405 48.1423 23.3556 48.8154 24.2378C49.289 24.8592 49.7831 25.4728 50.3406 26.0218C50.8116 26.4857 51.3694 26.85 51.9801 27.1043C52.6679 27.3912 53.4725 27.4356 54.198 27.4577C54.7243 27.4738 55.2515 27.4577 55.778 27.4577C56.2706 27.457 56.7629 27.4577 57.2555 27.4577V27.0372C57.2555 27.0798 56.444 26.9046 56.2236 26.8506Z"
                fill="#1A1A1A" />

              <path
                d="M81.4634 20.4643C80.6366 22.6358 79.441 24.5803 77.4333 25.7966C75.645 26.899 73.7984 27.4586 71.9481 27.4586C70.3297 27.4586 68.818 27.1244 67.4555 26.4677C66.0941 25.8109 64.9524 24.9595 64.0626 23.936C63.1822 22.9258 62.4227 21.767 61.8042 20.4907C60.6426 18.1205 60.0527 15.5369 60.0527 13.2499C60.0527 9.54068 61.0454 6.68231 63.0029 4.75426C64.944 2.84112 67.3215 1.87228 70.0691 1.87228C73.544 1.87228 76.5045 3.17897 78.8683 5.75787C81.2352 8.34081 82.1905 11.9904 82.1905 16.6051C82.1905 17.9854 81.9461 19.2837 81.4634 20.4643ZM80.5565 4.47386C79.6387 3.6106 78.3614 2.86907 76.7605 2.27162C75.1493 1.66951 73.3114 1.36489 71.298 1.36489C66.9801 1.36489 63.6053 2.66567 61.2689 5.23153C58.9335 7.79553 57.75 11.1321 57.75 15.1515C57.75 17.3681 58.2239 19.4452 59.1582 21.3245C60.0904 23.1991 61.5769 24.7781 63.5772 26.0174C65.5862 27.2632 68.0133 27.8945 70.7917 27.8945C76.3359 27.8945 80.3324 25.741 82.6693 21.4925C83.8974 19.2467 84.5203 16.4477 84.5203 13.1757C84.5203 11.3395 83.971 9.42051 82.8876 7.4701C82.2659 6.35346 81.4815 5.34581 80.5565 4.47386Z"
                fill="#1A1A1A" />


              <path
                d="M97.9874 12.269C96.8441 11.9169 95.7355 11.5328 94.6939 11.1278C93.5906 10.7015 92.6927 10.086 92.023 9.3001C91.3253 8.47907 90.9714 7.38944 90.9714 6.05915C90.9714 4.68012 91.5778 3.55043 92.774 2.70177C93.9098 1.89627 95.4194 1.48824 97.2606 1.48824C99.1216 1.48824 100.798 2.13599 102.243 3.41162C102.786 3.90039 103.121 4.20843 103.25 4.33512C103.347 4.43263 103.526 4.63602 103.943 5.28471C104.126 5.57008 104.291 5.87688 104.445 6.19392C104.602 6.58487 104.745 6.9898 104.858 7.41925V7.45869H104.872C104.872 7.45931 104.873 7.45993 104.873 7.46055V7.45869H105.28V2.62631H104.858V2.64432C104.353 2.99832 104.263 2.97223 103.724 2.59246L102.169 1.86677C101.894 1.78137 101.562 1.67797 101.12 1.5404C99.8383 1.13952 98.7259 0.937366 97.8115 0.937366C95.3199 0.937366 93.2744 1.5817 91.7312 2.85237C90.2054 4.10968 89.4637 5.76385 89.4637 7.90739C89.4637 10.018 90.5153 11.6638 92.679 12.9382C93.9834 13.6977 96.5367 14.7135 100.264 15.9549C101.343 16.3304 102.308 16.9446 103.139 17.7814C104.017 18.6702 104.462 19.7881 104.462 21.1065C104.462 22.8669 103.823 24.3112 102.561 25.3977C101.331 26.4587 99.6759 26.9966 97.641 26.9966C95.6158 26.9966 93.8599 26.4457 92.4214 25.3613C91.8391 24.9331 91.2928 24.3537 90.7781 23.6544C90.7622 23.6317 90.746 23.6125 90.7304 23.5898C90.6992 23.5466 90.6693 23.4979 90.6388 23.4541C90.3513 23.0122 90.1424 22.594 89.9962 22.2424C89.7356 21.6006 89.6112 21.264 89.5725 21.1059C89.5245 20.9128 89.3696 20.2011 89.4073 20.2011H89.0357C89.0357 20.633 89.0363 21.0649 89.0357 21.4966C89.0357 21.9589 89.0213 22.4213 89.0357 22.8831C89.0553 23.5193 89.0946 24.2251 89.3481 24.8285C89.5728 25.3638 89.8949 25.8535 90.3052 26.2668C90.3092 26.2709 90.3139 26.274 90.3176 26.2783L90.3186 26.2786C90.3251 26.2855 90.3329 26.2932 90.3357 26.2954C91.372 26.8326 92.4289 27.2059 93.4437 27.3844C94.4725 27.567 95.8652 27.6602 97.5839 27.6602C99.9671 27.6602 101.987 26.9199 103.589 25.4601C105.191 23.9991 105.97 22.0689 105.97 19.5601C105.97 18.0768 105.517 16.8722 104.587 15.8789C103.184 14.4126 100.962 13.1978 97.9874 12.269Z"
                fill="#1A1A1A" />

              <path
                d="M131.458 2.10613C131.542 2.10924 131.627 2.117 131.711 2.12601C131.723 2.12694 131.746 2.13128 131.76 2.13253C132.04 2.1701 132.403 2.26295 132.765 2.50453C132.932 2.61632 133.083 2.74892 133.17 2.85077C133.722 3.49294 133.361 4.75615 133.181 5.39956C132.905 6.05041 132.618 6.6963 132.319 7.33816C132.012 7.99461 131.704 8.65012 131.396 9.30564C131.024 10.0944 130.651 10.8828 130.278 11.6715C129.871 12.5304 129.464 13.39 129.058 14.2486C128.647 15.1152 128.237 15.9819 127.826 16.8486C127.442 17.66 127.058 18.4717 126.675 19.2831C126.411 19.8411 124.905 23.0594 124.202 24.5695C123.302 22.4967 116.108 7.46609 115.284 5.55388C115.246 5.46476 115.224 5.40856 115.214 5.37875C115.055 4.98469 114.885 4.54934 114.705 4.05591C114.616 3.81122 114.523 3.55877 114.513 3.29637C114.51 3.20942 114.518 3.14483 114.54 3.06969C114.677 2.61135 115.361 2.42318 115.899 2.27537C116.229 2.18438 116.534 2.14433 116.709 2.12601C116.794 2.117 116.878 2.10924 116.962 2.10613V1.68568H108.02V2.1139H108.145C108.775 2.15861 109.408 2.33219 109.929 2.6598C109.932 2.65638 110.193 2.82562 110.317 2.92716C111.48 3.88016 112.219 5.03003 112.696 6.07308C113.993 8.92276 119.027 19.4424 120.56 22.7753L122.736 27.457H123.182H123.274H123.373L125.55 22.7753C127.083 19.4424 132.116 8.92276 133.414 6.07308C133.891 5.03003 134.63 3.88016 135.792 2.92716C135.916 2.82562 136.178 2.65638 136.18 2.6598C136.702 2.33219 137.335 2.15861 137.965 2.1139H138.09V1.68568H131.458V2.10613Z"
                fill="#1A1A1A" />

              <path
                d="M146.058 23.7938C146.058 23.5444 146.028 5.59829 146.028 5.34863C146.028 3.92177 146.324 3.40102 146.728 2.96535C147.489 2.14619 149.089 2.10613 149.089 2.10613V1.68568H143.035H140.146V2.1139H140.271C141.378 2.19277 142.541 2.60297 142.971 3.71124C143.171 4.22733 143.208 4.80024 143.208 5.34863C143.208 5.59829 143.238 23.5444 143.238 23.7938C143.238 25.2206 142.942 25.7417 142.538 26.177C141.777 26.9965 140.177 27.0366 140.177 27.0366V27.457H149.119V27.0366C149.119 27.0366 147.519 26.9965 146.758 26.177C146.354 25.7417 146.058 25.2206 146.058 23.7938Z"
                fill="#1A1A1A" />
                <path
                d="M172.789 24.4434C171.045 26.1609 168.613 27.0037 166.16 27.0037H162.239C161.722 26.9416 160.781 26.7537 160.246 26.177C159.842 25.7417 159.546 25.2209 159.546 23.7938C159.546 23.5444 159.516 5.59829 159.516 5.34894C159.516 3.92177 159.812 3.40102 160.216 2.96567C160.977 2.14619 162.577 2.10613 162.577 2.10613V1.68568H156.522H153.635V2.1139H153.759C154.866 2.19277 156.029 2.60328 156.459 3.71124C156.659 4.22764 156.696 4.80055 156.696 5.34894C156.696 5.59829 156.726 23.5444 156.726 23.7938C156.726 25.2209 156.43 25.7417 156.026 26.177C155.265 26.9965 153.665 27.0366 153.665 27.0366V27.457H157.672H162.607H168.185H171.004H173.336V24.127H173.097C172.997 24.2341 172.895 24.34 172.789 24.4434Z"
                fill="#1A1A1A" />
              <path
                d="M195.61 24.4434C193.865 26.1609 191.433 27.0037 188.98 27.0037H185.059C184.542 26.9416 183.601 26.7537 183.067 26.177C182.663 25.7417 182.366 25.2209 182.366 23.7938C182.366 23.5444 182.336 5.59829 182.336 5.34894C182.336 3.92177 182.632 3.40102 183.036 2.96567C183.797 2.14619 185.397 2.10613 185.397 2.10613V1.68568H179.343H176.455V2.1139H176.579C177.686 2.19277 178.849 2.60328 179.279 3.71124C179.48 4.22764 179.516 4.80055 179.516 5.34894C179.516 5.59829 179.546 23.5444 179.546 23.7938C179.546 25.2209 179.25 25.7417 178.846 26.177C178.086 26.9965 176.485 27.0366 176.485 27.0366V27.457H180.492H185.428H191.005H193.824H196.156V24.127H195.917C195.817 24.2341 195.715 24.34 195.61 24.4434Z"
                fill="#1A1A1A" />
              <path
                d="M216.762 24.127C216.662 24.2341 216.56 24.34 216.455 24.4434C214.71 26.1609 212.278 27.0037 209.825 27.0037H206.954C206.437 26.9416 205.496 26.7537 204.962 26.177C204.557 25.7417 204.261 25.2209 204.261 23.7938C204.261 23.6671 204.254 18.9375 204.246 14.3001C207.543 14.2948 210.232 14.2905 210.328 14.2905C211.76 14.2905 212.284 14.5855 212.72 14.9879C213.543 15.745 213.584 17.3395 213.584 17.3395H214.005V10.7918H213.576V10.9163C213.496 12.0184 213.085 13.1763 211.972 13.6052C211.454 13.8042 210.878 13.8408 210.328 13.8408C210.232 13.8408 207.542 13.8449 204.245 13.8511C204.238 9.55437 204.231 5.46725 204.231 5.34894C204.231 3.92177 204.527 3.40102 204.931 2.96566C205.491 2.36263 206.501 2.18314 206.998 2.12942C210.064 2.12477 212.49 2.12041 212.581 2.12041C214.014 2.12041 214.536 2.41541 214.974 2.81785C215.796 3.57491 215.836 5.16945 215.836 5.16945H216.259V1.68568H207.292H204.331H201.238H198.35V2.1139H198.475C199.581 2.19277 200.744 2.60297 201.174 3.71123C201.374 4.22763 201.411 4.80055 201.411 5.34894C201.411 5.59829 201.441 23.5444 201.441 23.7938C201.441 25.2209 201.145 25.7417 200.741 26.177C199.98 26.9965 198.38 27.0366 198.38 27.0366V27.457H201.337H207.323H211.85H214.67H217.001V24.127H216.762Z"
                fill="#1A1A1A" />

    </svg>