<svg width="57" height="69" fill="none" xmlns="http://www.w3.org/2000/svg"><circle cx="28.5" cy="28.5" r="28.5" fill="#1A1A1A"/><circle cx="1.5" cy="1.5" r="1.5" transform="matrix(1 0 0 -1 27 69)" fill="#1A1A1A"/><circle cx="28.5" cy="28.5" r="24.5" fill="#E3E2E2"/><path d="M46.146 37.938a5.523 5.523 0 0 1-2.203-1.195c-1.54-1.37-2.621-3.247-3.811-4.91-.409-.569-.749-1.047-1.045-1.458l-1.823-2.558a.179.179 0 0 1 .085-.27c.486-.194 1.479-.869 1.59-.957a6.535 6.535 0 0 0 1.836-2.217c.376-.738.566-1.617.566-2.608 0-1.476-.602-2.621-1.84-3.5a7.085 7.085 0 0 0-1.867-.938c-.77-.253-1.586-.327-2.396-.327 0 0-7.183.007-7.183 0h-.077c-.409 0-2.314 0-2.314.007v.348h.174c1.11 0 2.007.604 2.279 1.7.136.549.123 1.122.109 1.688.005-.19-1.528-.745-1.726-.826a14.56 14.56 0 0 0-6.164-.987c-2.328.14-4.333.843-6.178 2.273a10.068 10.068 0 0 0-2.836 3.42C10.444 26.372 10 28.378 10 30.574c0 1.23.172 2.288.514 3.258 1.342 3.81 4.651 6.167 8.497 6.934.363.073 1.438.267 2.843.228 3.326-.102 6.01-1.694 8.734-3.426v-7.503h-4.94v.351h.045c.379-.007 1.343.032 1.972.714.335.361.58.797.58 1.985 0 2.168-.031 2.913-.097 3.444-.17 1.086-.973 2.031-2.39 2.822-1.613.9-2.616 1.135-4.198 1.121-.37 0-1.792-.06-3.3-.7-4.192-1.774-6.068-6.662-6.068-10.95 0-3.018.907-5.419 2.692-7.137.806-.773 1.711-1.455 2.756-1.873 2.12-.85 4.671-.636 6.761.197.675.27 1.325.608 1.937 1.001.029.021.057.043.085.06 1.338 1.03 2.465 2.551 2.989 4.569h1.2v-8.304h2.087c2.148 0 3.787.576 4.873 1.714 1.09 1.146 1.641 2.432 1.641 3.83 0 1.392-.424 2.556-1.261 3.448-.836.89-2.213 1.343-4.09 1.343h-3.25v.365h2.74c1.44 0 2.603 1.452 3.271 2.552 1.005 1.651 2.047 3.282 3.183 4.85.938 1.296 2.02 2.59 3.68 2.888 1.146.204 2.356.088 3.514.088v-.352c0 .035-.672-.109-.854-.154Z" fill="#EF3827"/><path d="M47 40.5H31v.5h16v-.5Z" fill="#272D34"/><path d="m28.501 62-5.897-6.75h11.794L28.501 62Z" fill="#1A1A1A"/></svg>