<svg width="24" height="24" fill="none" xmlns="http://www.w3.org/2000/svg"><path d="M13.652 7.089c-.144-.35-.434-.629-.723-.85l-.133-.09c-.624-.335-1.302-.271-1.952-.07L6.68 7.347c-.55.274-.802.632-1.031 1.187l-1.451 3.289a1.92 1.92 0 0 0-.022.65c.061.229.184.368.376.502.372.2.8.253 1.207.136.374-.145.374-.145.79-1.054l1.194-2.672 1.64-.443-.56 2.06c-.175.68-.358 1.353-.402 2.058l-.55 4.13c-.015.127-.018.194-.106.29l-2.858 3.206c-.169.183-.193.316-.202.565.017.518.289.89.645 1.252.205.159.402.203.658.189.371-.043.74-.23.985-.518l2.567-2.906c.786-.766.864-1.086 1.064-3.59l1.768 1.461c.137.133.175.258.199.446l.287 3.727c.021.249.05.442.183.66.241.3.561.418.931.487.214.022.727 0 1.064-.266.25-.29.33-.628.328-1.003l-.3-4.356c-.01-.17-.018-.328-.073-.49-.077-.338-.497-.728-.698-.882l-1.916-1.645.753-3.014.665.975c.31.414.63.63 1.141.719l3.606.628c.403.006.755-.044 1.058-.327.199-.189.235-.383.243-.647l.001-.107a1.734 1.734 0 0 0-.155-.753c-.23-.303-.623-.425-.79-.448l-3.376-.572-1.892-3.182Z" fill="#E73D1E"/><circle cx="13.373" cy="3.402" r="2.172" fill="#E73D1E"/></svg>