<svg width="25" height="24" fill="none" xmlns="http://www.w3.org/2000/svg"><path d="M16 3c-1.5 1.5-9.5 9-9.5 9l6.27 1.447s-2.27 4.553-3.5 8C11.5 19.5 18.5 12.5 18.5 12.5L13 11s2-4.5 3-8Z" stroke="#E73D1E" stroke-width="1.2"/><path fill-rule="evenodd" clip-rule="evenodd" d="M12.5 1c.411 0 .817.023 1.217.067.394.043.614.463.45.824a.635.635 0 0 1-.648.361A9.913 9.913 0 0 0 12.5 2.2c-5.412 0-9.8 4.388-9.8 9.8a9.786 9.786 0 0 0 4.026 7.919.633.633 0 0 1 .228.731.578.578 0 0 1-.876.282A10.986 10.986 0 0 1 1.5 12c0-6.075 4.925-11 11-11Zm-1.43 21.17a.578.578 0 0 0 .48.79c.313.026.63.04.95.04 6.075 0 11-4.925 11-11 0-3.58-1.71-6.759-4.356-8.768a.577.577 0 0 0-.873.236.633.633 0 0 0 .2.76A9.784 9.784 0 0 1 22.3 12c0 5.412-4.388 9.8-9.8 9.8a9.95 9.95 0 0 1-.781-.03.634.634 0 0 0-.648.4Z" fill="#E73D1E"/></svg>