<svg xmlns="http://www.w3.org/2000/svg"><path d="M9 13.125a1.125 1.125 0 1 1-2.25 0 1.125 1.125 0 0 1 2.25 0ZM16.125 12a1.125 1.125 0 1 0 0 2.25 1.125 1.125 0 0 0 0-2.25Zm5.625-7.5v8.25c0 4.962-4.373 9-9.75 9s-9.75-4.038-9.75-9V4.5a1.5 1.5 0 0 1 2.596-1.022l1.623 1.866a10.427 10.427 0 0 1 11.072 0l1.613-1.866A1.5 1.5 0 0 1 21.75 4.5Zm-1.5 0-2.021 2.325a.75.75 0 0 1-1.014.112 8.328 8.328 0 0 0-1.465-.867v2.18a.75.75 0 1 1-1.5 0V5.536a9.135 9.135 0 0 0-1.5-.255V8.25a.75.75 0 1 1-1.5 0V5.28a9.135 9.135 0 0 0-1.5.256V8.25a.75.75 0 0 1-1.5 0V6.07a8.331 8.331 0 0 0-1.465.867.75.75 0 0 1-1.014-.11L3.75 4.5v8.25c0 3.906 3.3 7.125 7.5 7.469V18.31l-1.28-1.28a.75.75 0 0 1 1.06-1.06l.97.969.97-.97a.752.752 0 0 1 1.28.53.75.75 0 0 1-.22.53l-1.28 1.281v1.909c4.2-.346 7.5-3.563 7.5-7.469V4.5Z"/><path d="m22.473 11.719-1.54-8.25a1.5 1.5 0 0 0-1.838-1.18l-.03.009-4.923 1.452H9.858L4.934 2.302l-.029-.008a1.5 1.5 0 0 0-1.838 1.18l-1.54 8.245a1.478 1.478 0 0 0 .855 1.642c.198.09.412.138.63.139.26 0 .514-.07.738-.203v3.953A3.75 3.75 0 0 0 7.5 21h9a3.75 3.75 0 0 0 3.75-3.75v-3.952c.223.133.478.203.738.203.217 0 .432-.048.63-.138a1.479 1.479 0 0 0 .855-1.644ZM3 12l1.54-8.25 3.944 1.16L3 12Zm13.5 7.5h-3.75v-1.19l1.28-1.28a.75.75 0 1 0-1.06-1.06l-.97.97-.97-.97a.75.75 0 0 0-1.06 1.06l1.28 1.28v1.19H7.5a2.25 2.25 0 0 1-2.25-2.25v-5.709l4.867-6.291h3.765l4.868 6.291v5.709a2.25 2.25 0 0 1-2.25 2.25ZM21 12l-5.484-7.09 3.944-1.16L21 12ZM9.75 13.125a1.125 1.125 0 1 1-2.25 0 1.125 1.125 0 0 1 2.25 0Zm6.75 0a1.125 1.125 0 1 1-2.25 0 1.125 1.125 0 0 1 2.25 0Z"/></svg>