<svg viewBox="0 0 24 24" preserveAspectRatio="xMidYMin meet" xmlns="http://www.w3.org/2000/svg"><defs><style>.sprite{display:none}.sprite:target{display:inline}</style></defs><symbol viewBox="0 0 24 24" class="sprite" id="size"><path stroke="#E73D1E" stroke-linecap="round" stroke-width="1.2" d="M3 4h11m-7 6V4m6 16v-6m0 0h7M5 20h18M5 1v19m16-10v12"/></symbol><symbol viewBox="0 0 24 24" class="sprite" fill="none" id="bath"><path stroke="#E73D1E" stroke-width="1.2" d="M4.8 12.9v-.2a.8.8 0 0 1 .7-.7h13a.8.8 0 0 1 .7.9v.6c-.2 2.6-2.4 5-5 5.2h-.5a45.6 45.6 0 0 1-3.4 0h-.5a5.8 5.8 0 0 1-5-5.2V13Z"/><path stroke="#E73D1E" stroke-linecap="round" stroke-width="1.2" d="M7.2 18.4 6.4 20m10.4-1.6.8 1.6M4 12h16"/><path stroke="#E73D1E" stroke-width="1.2" d="M9.6 5.8v-.2a3 3 0 0 0-1.2-1.3 2.4 2.4 0 0 0-3 .6c-.4.5-.6 1-.6 1.6V12"/><mask id="a" fill="#fff"><path d="M9.1 5.5c-.4.3-.7.7-.9 1.2-.3.6-.3 1.3 0 2a.5.5 0 0 0 .4.3h.2l4-1.7a.5.5 0 0 0 .2-.6 2.6 2.6 0 0 0-1.4-1.5c-.5-.2-1-.3-1.6-.1l-.9.4Z"/></mask><path fill="#E73D1E" d="m9.1 5.5-.5-1h-.2l.7 1Zm-.9 1.2 1.1.4-1.1-.4Zm0 2L7 9l1-.4Zm.6.3.5 1-.5-1Zm4-1.7-.6-1.1.5 1Zm.2-.6-1.2.4 1.2-.4Zm-1.4-1.5.5-1.1-.5 1.1ZM10 5.1l-.3-1.2h-.2l.5 1.2Zm-1.6-.6c-.6.5-1 1-1.3 1.7l2.2.9c.1-.3.3-.5.5-.6l-1.4-2ZM7 6.2a4 4 0 0 0 0 3l2.2-1v-1L7 6.2Zm0 3 .3.5L9.2 8l.1.3-2.2.8Zm.3.5.6.4 1-2.2.2.1-1.8 1.7Zm.6.4.7.1V7.8h.2l-1 2.3Zm.7.1.6-.1-1-2.2.3-.1v2.4Zm.6-.1 3.9-1.7-1-2.2-3.8 1.7 1 2.2Zm3.9-1.7c.4-.2.7-.5.9-1l-2.2-.8c0-.2.2-.3.3-.4l1 2.2Zm.9-1V6.3l-2.3.9v-.5l2.3.9Zm0-1.2L13.3 5l-1.7 1.6.2.5 2.3-.9ZM13.3 5 12 4l-1 2.2c.2 0 .3.2.5.3L13.3 5ZM12 4a4 4 0 0 0-2.4-.2l.6 2.3.8.1L12 4ZM9.5 4l-1 .4 1.1 2.2.9-.4-1-2.2Z" mask="url(#a)"/></symbol><symbol viewBox="0 0 24 24" class="sprite" id="man"><path d="M13.652 7.089c-.144-.35-.434-.629-.723-.85l-.133-.09c-.624-.335-1.302-.271-1.952-.07L6.68 7.347c-.55.274-.802.632-1.031 1.187l-1.451 3.289a1.92 1.92 0 0 0-.022.65c.061.229.184.368.376.502.372.2.8.253 1.207.136.374-.145.374-.145.79-1.054l1.194-2.672 1.64-.443-.56 2.06c-.175.68-.358 1.353-.402 2.058l-.55 4.13c-.015.127-.018.194-.106.29l-2.858 3.206c-.169.183-.193.316-.202.565.017.518.289.89.645 1.252.205.159.402.203.658.189.371-.043.74-.23.985-.518l2.567-2.906c.786-.766.864-1.086 1.064-3.59l1.768 1.461c.137.133.175.258.199.446l.287 3.727c.021.249.05.442.183.66.241.3.561.418.931.487.214.022.727 0 1.064-.266.25-.29.33-.628.328-1.003l-.3-4.356c-.01-.17-.018-.328-.073-.49-.077-.338-.497-.728-.698-.882l-1.916-1.645.753-3.014.665.975c.31.414.63.63 1.141.719l3.606.628c.403.006.755-.044 1.058-.327.199-.189.235-.383.243-.647l.001-.107a1.734 1.734 0 0 0-.155-.753c-.23-.303-.623-.425-.79-.448l-3.376-.572-1.892-3.182Z" fill="#E73D1E"/><circle cx="13.373" cy="3.402" r="2.172" fill="#E73D1E"/></symbol><symbol viewBox="0 0 24 24" class="sprite" id="car"><path d="m20.277 10.18-.468-1.17-.83-2.077A4.644 4.644 0 0 0 14.646 4H9.354a4.644 4.644 0 0 0-4.333 2.933l-.83 2.077-.468 1.17A2.661 2.661 0 0 0 2 12.667v2c0 .671.257 1.278.667 1.747v2.253C2.667 19.403 3.264 20 4 20h1.333c.737 0 1.334-.597 1.334-1.333v-1.334h10.666v1.334c0 .736.597 1.333 1.334 1.333H20c.736 0 1.333-.597 1.333-1.333v-2.253c.41-.469.667-1.075.667-1.747v-2c0-1.14-.718-2.104-1.723-2.487ZM7.498 7.924a2 2 0 0 1 1.857-1.257h5.292a2 2 0 0 1 1.857 1.257l.83 2.076H6.667l.83-2.076Zm-2.164 6.734c-.8 0-1.333-.531-1.333-1.329C4 12.532 4.533 12 5.333 12s2 1.196 2 1.994c0 .797-1.2.664-2 .664Zm13.334 0c-.8 0-2 .133-2-.664 0-.798 1.2-1.994 2-1.994S20 12.532 20 13.33c0 .797-.533 1.328-1.333 1.328Z" fill="#E73D1E"/></symbol><symbol viewBox="0 0 24 24" class="sprite" fill="none" id="bed"><path stroke="#E73D1E" stroke-linecap="round" stroke-linejoin="round" stroke-width="1.2" d="M2 20v-6a3 3 0 0 1 3-3h14a3 3 0 0 1 3 3v6m-4-9H5V6a2 2 0 0 1 1-1h12a2 2 0 0 1 2 1v5h-2Z"/><path stroke="#E73D1E" stroke-linecap="round" stroke-linejoin="round" stroke-width="1.2" d="M2 20v-1a1 1 0 0 1 1-1h18a1 1 0 0 1 1 1v1M5 11v0a2 2 0 0 1 2-2h4a2 2 0 0 1 1 2m0 0v0m0 0a2 2 0 0 1 2-2h3a2 2 0 0 1 2 2v0"/></symbol><symbol viewBox="0 0 24 24" class="sprite" id="floor"><path d="M17.5 8.65V8.5H21c.283 0 .52-.095.712-.287A.968.968 0 0 0 22 7.5a1 1 0 0 0-1-1h-4.5l1 2.15Zm0 0V12a.968.968 0 0 1-.288.713.964.964 0 0 1-.712.287l1-4.35Zm-11 11.5h.15V16.5c0-.245.082-.444.244-.606a.823.823 0 0 1 .606-.244h3.65V12c0-.245.082-.444.244-.606A.823.823 0 0 1 12 11.15h3.65V7.5c0-.245.082-.444.244-.606a.823.823 0 0 1 .606-.244H21c.47 0 .85.38.85.85a.818.818 0 0 1-.244.607.814.814 0 0 1-.606.243h-3.65V12a.818.818 0 0 1-.244.607.814.814 0 0 1-.606.243h-3.65v3.65a.818.818 0 0 1-.244.607.814.814 0 0 1-.606.243H8.35V21a.819.819 0 0 1-.244.607.814.814 0 0 1-.606.243H4a.815.815 0 0 1-.606-.244A.823.823 0 0 1 3.15 21c0-.245.08-.443.244-.606A.82.82 0 0 1 4 20.15h2.5Z" fill="#E73D1E"/></symbol><symbol viewBox="0 0 24 24" class="sprite" fill="none" id="power"><svg xmlns="http://www.w3.org/2000/svg" viewBox="0 0 24 24"><path stroke="#E73D1E" stroke-width="1.2" d="M15.5 3 6 12l6.3 1.4s-2.3 4.6-3.5 8c2.2-1.9 9.2-8.9 9.2-8.9L12.5 11s2-4.5 3-8Z"/><path fill="#E73D1E" fill-rule="evenodd" d="M12 1h1.2c.4.1.6.5.5.9-.1.2-.4.4-.7.4l-1-.1a9.8 9.8 0 0 0-5.8 17.7c.3.2.4.5.3.8-.2.3-.6.5-1 .2A11 11 0 0 1 12 1Zm-1.4 21.2c-.2.3 0 .7.5.8h.9a11 11 0 0 0 6.6-19.8.6.6 0 0 0-.8.3c-.2.2 0 .5.2.7a9.8 9.8 0 0 1-6.8 17.6c-.3 0-.5.1-.6.4Z" clip-rule="evenodd"/></svg></symbol><path stroke="#E73D1E" d="m6 2 12 8-12 8V2Z" class="sprite" id="play" fill="none"/><path stroke="#E73D1E" stroke-linecap="round" stroke-linejoin="round" stroke-miterlimit="10" stroke-width="1.2" d="M17 22v-7m0-10V2m0 9a3 3 0 1 0 0-6 3 3 0 0 0 0 6ZM7 22v-3M7 9V2m0 17a3 3 0 1 0 0-6 3 3 0 0 0 0 6Z" class="sprite" id="filter" fill="none"/><path fill="#E73D1E" d="M1.5 11.4a.6.6 0 1 0 0 1.2v-1.2Zm21.4 1c.3-.2.3-.6 0-.8l-3.8-3.8a.6.6 0 1 0-.8.8l3.4 3.4-3.4 3.4a.6.6 0 1 0 .8.8l3.8-3.8Zm-21.4.2h21v-1.2h-21v1.2Z" class="sprite" id="arrow-right"/><path fill="#E73D1E" d="M34 17a1 1 0 0 1 0 2v-2ZM0 19v-2l5-4a1 1 0 1 1 1 1l-4 4 4 4a1 1 0 0 1-1 1l-5-4Zm34 0H1v-2h33v2Z" class="sprite" id="arrow-left"/><path fill="#E73D1E" d="M12.6 1.5a.6.6 0 1 0-1.2 0h1.2Zm-1 21.4c.2.3.6.3.8 0l3.8-3.8a.6.6 0 1 0-.8-.8L12 21.7l-3.4-3.4a.6.6 0 1 0-.8.8l3.8 3.8Zm-.2-21.4v21h1.2v-21h-1.2Z" class="sprite" id="arrow-down"/><path fill="#1A1A1A" d="M2 11a1 1 0 1 0 0 2v-2Zm21 1-4-4a1 1 0 1 0-1 1l4 3-4 3a1 1 0 1 0 1 1l4-4ZM2 13h21v-2H2v2Z" class="sprite" id="arrow-right-black"/><path stroke="#E73D1E" stroke-miterlimit="10" stroke-width="1.2" d="M22 18.3c0 .4-.1.8-.3 1.1-.1.4-.4.7-.7 1-.4.6-1 1-1.6 1.2a5 5 0 0 1-2 .4c-1 0-2-.2-3.2-.7a28.8 28.8 0 0 1-9.5-8c-.8-1.2-1.5-2.4-2-3.5A8.4 8.4 0 0 1 2 6.5c0-.6.1-1.3.4-1.9C2.6 4 3 3.4 3.5 3a3 3 0 0 1 2-.9c.4 0 .7 0 .9.2l.7.5L9.4 6l.4.7.1.6c0 .3 0 .5-.2.7l-.5.7-.8.8-.2.4v.3l.2.2.9 1.2a34.2 34.2 0 0 0 3 3l1.3 1h.2l.2.1.4-.1.8-.8.7-.6.7-.2c.2 0 .4 0 .6.2.3 0 .5.2.8.4l3.3 2.3.5.7.2.7Z" class="sprite" id="phone" fill="none"/><path stroke="rgba(26, 26, 26, 1)" stroke-miterlimit="10" stroke-width="1.2" d="M22 18.3c0 .4-.1.8-.3 1.1-.1.4-.4.7-.7 1-.4.6-1 1-1.6 1.2a5 5 0 0 1-2 .4c-1 0-2-.2-3.2-.7a28.8 28.8 0 0 1-9.5-8c-.8-1.2-1.5-2.4-2-3.5A8.4 8.4 0 0 1 2 6.5c0-.6.1-1.3.4-1.9C2.6 4 3 3.4 3.5 3a3 3 0 0 1 2-.9c.4 0 .7 0 .9.2l.7.5L9.4 6l.4.7.1.6c0 .3 0 .5-.2.7l-.5.7-.8.8-.2.4v.3l.2.2.9 1.2a34.2 34.2 0 0 0 3 3l1.3 1h.2l.2.1.4-.1.8-.8.7-.6.7-.2c.2 0 .4 0 .6.2.3 0 .5.2.8.4l3.3 2.3.5.7.2.7Z" class="sprite" id="phone-black" fill="none"/><path fill="#E73D1E" d="m21.7 2.4-19.9 8c-1.4.5-1.4 1.3-.2 1.6l5 1.7 12-7.8c.5-.3 1-.1.6.3l-9.6 9-.4 5.4c.5 0 .8-.3 1-.6l2.5-2.5 5.2 4c1 .5 1.6.2 1.9-1L23.2 4c.3-1.4-.6-2-1.5-1.6Z" class="sprite" id="tg"/><path fill="#E73D1E" d="M12 2a10 10 0 1 1-5 18.6L2 22l1.4-5A10 10 0 0 1 12 2ZM8.6 7.3h-.2a1 1 0 0 0-.4.1l-.3.2-.2.3c-.4.5-.6 1.1-.6 1.7 0 .5.1 1 .3 1.4.4 1 1.1 1.9 2 2.8l.6.6c1.2 1 2.5 1.7 3.9 2l.6.1h.5c.3 0 .6 0 .8-.2l.4-.2.2-.1.3-.3.2-.3.2-.7v-.4l-.2-.3-.6-.2-1.4-.7h-.2a.5.5 0 0 0-.3.1l-.8 1a.3.3 0 0 1-.4 0h-.4a6 6 0 0 1-1.6-1l-.4-.4-1-1.3v-.1l-.2-.2.1-.3.4-.4.2-.4c.1-.1.2-.3.1-.5l-.9-2c0-.2-.2-.3-.3-.3a3.3 3.3 0 0 0-.6 0h.2Z" class="sprite" id="vk"/><g class="sprite" id="money" fill="none"><path stroke="#E73D1E" stroke-width="1.2" d="M5 6.7h15c1.3 0 2.4 1.1 2.4 2.4v10c0 1.4-1 2.4-2.4 2.4H5c-1.3 0-2.4-1-2.4-2.4v-10c0-1.3 1-2.4 2.4-2.4Z"/><path fill="#E73D1E" d="M17.9 4.6a.6.6 0 1 0 1.2 0h-1.2Zm-15.3 3h.6-.6Zm13.9-6.5-.1-.5.1.5Zm2 1.5h.6-.6ZM2.6 10.1h.6v-.2a3340.9 3340.9 0 0 0 0-2.3H2A1724.4 1724.4 0 0 1 2 10v.2h.6Zm.6-2.5c0-1 .4-1.6.9-2 .6-.4 1.3-.6 2-.9l-.3-1.1c-.7.2-1.7.5-2.4 1-.8.7-1.4 1.6-1.4 3h1.2Zm3-2.9c3.6-1.2 7-2 10.5-3L16.3.6c-3.4 1-6.8 1.7-10.5 3l.4 1.1Zm10.4-3h1.1l.1.3.1.7 1.2-.1v-.8l-.4-.8c-.5-.7-1.3-.7-2.3-.4l.2 1.1Zm1.3 1v2h1.2V2.6h-1.2Z"/><circle cx="19.5" cy="13.6" r="1.5" fill="#E73D1E"/></g><g class="sprite" id="height" fill="none"><path stroke="#E73D1E" stroke-linecap="round" stroke-width="1.2" d="M4.5 20h18M4.6 1v18.9"/><path fill="#E73D1E" d="M11.4 22a.6.6 0 1 0 1.2 0h-1.2Zm1-19.4a.6.6 0 0 0-.8 0L7.8 6.4a.6.6 0 1 0 .8.8L12 3.8l3.4 3.4a.6.6 0 1 0 .8-.8l-3.8-3.8Zm.2 19.4V3h-1.2v19h1.2Z"/></g><path stroke="#E73D1E" stroke-linecap="round" stroke-linejoin="round" stroke-width="1.5" d="M21 1 1 21M1 1l20 20" class="sprite" id="x" fill="none"/><path stroke="#E73D1E" stroke-linecap="round" stroke-linejoin="round" stroke-width="1.2" d="M2 8h7.5M2 4.5h12m-12 7h3" class="sprite" id="sorting" fill="none"/><g class="sprite" id="mail" fill="none"><path stroke="#e73d1e" stroke-linecap="round" stroke-linejoin="round" stroke-miterlimit="10" stroke-width="1.5" d="M19 23H9c-3 0-5-1-5-5v-7c0-3 2-5 5-5h10c3 0 5 2 5 5v7c0 4-2 5-5 5Z"/><path stroke="#e73d1e" stroke-linecap="round" stroke-linejoin="round" stroke-miterlimit="10" stroke-width="1.5" d="m19 12-3 2h-4l-3-2"/></g><path stroke="#E3E2E2" stroke-linecap="round" stroke-linejoin="round" stroke-miterlimit="10" stroke-width="1.2" d="M14.2 18.3v-5.8m0-8.3V1.7m0 7.5a2.5 2.5 0 1 0 0-5 2.5 2.5 0 0 0 0 5Zm-8.4 9.1v-2.5m0-8.3V1.7m0 14.1a2.5 2.5 0 1 0 0-5 2.5 2.5 0 0 0 0 5Z" class="sprite" id="filter-white" fill="none"/><g fill="#e73d1e" stroke-miterlimit="10" stroke-width="0" class="sprite" id="download"><path d="M188 126c-3-2-6-1-8 1l-47 55V7a6 6 0 0 0-11 0v175l-46-55a6 6 0 1 0-9 7l57 67v1h2v1h1a6 6 0 0 0 2 0l1-1h1l1-1 56-67c2-2 2-6 0-8z"/><path d="M233 254H23c-3 0-6-2-6-5v-62a6 6 0 0 1 12 0v56h198v-56a6 6 0 0 1 11 0v62c0 3-2 5-5 5z"/></g><path fill="#fff" fill-opacity=".1" d="M612 353.8c-14-4-26.3-10.5-37.2-20.2-26.1-23.2-44.4-54.9-64.6-83L492.5 226l-30.8-43.3a3 3 0 0 1 1.4-4.5c8.2-3.3 25-14.7 27-16.1 13-10 23.6-22.9 31-37.5a96.7 96.7 0 0 0 9.6-44.1c0-25-10.2-44.3-31.2-59.1A117 117 0 0 0 427.4 0h-123l-39.2.1v6h3c18.8 0 34 10.1 38.6 28.6 2.3 9.3 2 19 1.8 28.6.1-3.3-25.8-12.7-29.2-14A244 244 0 0 0 175 32.7 181.4 181.4 0 0 0 70.4 71a169.8 169.8 0 0 0-48 57.8A222 222 0 0 0 0 229.4c0 20.7 3 38.6 8.7 55 22.7 64.4 78.8 104.3 143.9 117.2 6.1 1.2 24.3 4.5 48.1 3.8 56.3-1.6 101.8-28.6 148-57.8V220.8H265v5.9h.7c6.4-.1 22.8.5 33.4 12 5.7 6.2 9.8 13.5 9.8 33.6 0 36.6-.5 49.3-1.6 58.2-2.9 18.3-16.5 34.3-40.5 47.7-27.3 15.2-44.3 19.2-71 19-6.3 0-30.4-1-56-11.9-71-30-102.7-112.6-102.7-185 0-51 15.4-91.6 45.6-120.6 13.7-13.1 29-24.6 46.7-31.7 35.9-14.3 79-10.7 114.5 3.4a191.9 191.9 0 0 1 34.2 18c22.7 17.3 41.7 43 50.6 77.1H349V6.1h35.4c36.3 0 64 9.8 82.5 29a92 92 0 0 1 27.8 64.7 82 82 0 0 1-21.4 58.3c-14.1 15-37.4 22.7-69.2 22.7h-55v6.2h46.3c24.4 0 44 24.5 55.4 43 17 28 34.7 55.6 53.9 82 15.9 22 34.2 43.8 62.3 48.8 19.4 3.5 40 1.5 59.5 1.5v-6c0 .7-11.4-1.8-14.4-2.5Z" class="sprite" id="gr"/><path fill="#E73D1E" d="M11.7 2.4A6.7 6.7 0 0 0 .8 4.5a6.5 6.5 0 0 0 1.5 7.2L7 16.3l4.7-4.6a6.5 6.5 0 0 0 0-9.3ZM7 9.2a2 2 0 0 1-2-2 2 2 0 1 1 2 2Z" class="sprite" id="geo"/></svg>