<svg width="24" height="24" viewBox="0 0 24 24" fill="none" xmlns="http://www.w3.org/2000/svg">
<path d="M12.6 1.5C12.6 1.16863 12.3314 0.9 12 0.9C11.6686 0.9 11.4 1.16863 11.4 1.5H12.6ZM11.5757 22.9243C11.8101 23.1586 12.1899 23.1586 12.4243 22.9243L16.2426 19.1059C16.477 18.8716 16.477 18.4917 16.2426 18.2574C16.0083 18.023 15.6284 18.023 15.3941 18.2574L12 21.6515L8.60589 18.2574C8.37157 18.023 7.99167 18.023 7.75736 18.2574C7.52304 18.4917 7.52304 18.8716 7.75736 19.1059L11.5757 22.9243ZM11.4 1.5L11.4 22.5H12.6L12.6 1.5H11.4Z" fill="#E73D1E"/>
</svg>
