<svg width="24" height="24" viewBox="0 0 24 24" fill="none" xmlns="http://www.w3.org/2000/svg">
<path d="M1.5 11.4C1.16863 11.4 0.9 11.6686 0.9 12C0.9 12.3314 1.16863 12.6 1.5 12.6V11.4ZM22.9243 12.4243C23.1586 12.1899 23.1586 11.8101 22.9243 11.5757L19.1059 7.75736C18.8716 7.52304 18.4917 7.52304 18.2574 7.75736C18.023 7.99167 18.023 8.37157 18.2574 8.60589L21.6515 12L18.2574 15.3941C18.023 15.6284 18.023 16.0083 18.2574 16.2426C18.4917 16.477 18.8716 16.477 19.1059 16.2426L22.9243 12.4243ZM1.5 12.6H22.5V11.4H1.5V12.6Z" fill="#1A1A1A"/>
</svg>
