<svg width="24" height="24" viewBox="0 0 24 24" fill="none" xmlns="http://www.w3.org/2000/svg">
<path d="M4.80078 12.8664C4.80078 12.8048 4.80078 12.7736 4.80238 12.748C4.81499 12.5542 4.89767 12.3716 5.03501 12.2342C5.17235 12.0969 5.35496 12.0142 5.54878 12.0016C5.57518 12 5.60478 12 5.66718 12H18.3344C18.396 12 18.4264 12 18.4528 12.0016C18.6466 12.0142 18.8292 12.0969 18.9666 12.2342C19.1039 12.3716 19.1866 12.5542 19.1992 12.748C19.2008 12.7736 19.2008 12.804 19.2008 12.8664C19.2008 13.1824 19.2008 13.3408 19.1896 13.5184C19.0224 16.148 16.7872 18.4696 14.1656 18.7344C13.9888 18.7528 13.8856 18.7568 13.6792 18.7648C13.12 18.7868 12.5604 18.7986 12.0008 18.8C11.4808 18.8 10.9096 18.7864 10.3224 18.7648C10.116 18.7568 10.0128 18.7528 9.83678 18.7352C7.21438 18.4696 4.97918 16.148 4.81278 13.5184C4.80078 13.3408 4.80078 13.1824 4.80078 12.8664Z" stroke="#E73D1E" stroke-width="1.2"/>
<path d="M7.2 18.4L6.4 20M16.8 18.4L17.6 20M4 12H20" stroke="#E73D1E" stroke-width="1.2" stroke-linecap="round"/>
<path d="M9.60078 5.79852L9.51503 5.57858C9.30448 5.03694 8.9165 4.58752 8.41783 4.30765C7.91917 4.02779 7.34101 3.93498 6.78285 4.0452C6.22469 4.15543 5.72143 4.46178 5.35967 4.91156C4.99791 5.36133 4.80028 5.9264 4.80078 6.50952V12" stroke="#E73D1E" stroke-width="1.2"/>
<mask id="path-4-inside-1_3087_12503" fill="white">
<path d="M9.09691 5.49672C8.69668 5.79188 8.38627 6.19376 8.20067 6.65707C7.93744 7.30773 7.93302 8.03547 8.18833 8.68932C8.21225 8.75043 8.2481 8.80608 8.29378 8.85297C8.33945 8.89986 8.39401 8.93704 8.45421 8.96229C8.51442 8.98755 8.57905 9.00037 8.64427 8.99999C8.70949 8.99962 8.77397 8.98606 8.83389 8.96011L12.7053 7.28107C12.8215 7.23077 12.9137 7.13691 12.9624 7.01936C13.0111 6.9018 13.0125 6.76977 12.9663 6.65119C12.8426 6.32929 12.6563 6.03548 12.4184 5.78694C12.1806 5.5384 11.8959 5.34012 11.5811 5.20369C11.0758 4.98522 10.513 4.94107 9.98017 5.07811L9.09691 5.49672Z"/>
</mask>
<path d="M9.09691 5.49672L8.58298 4.41235L8.4781 4.46205L8.38469 4.53094L9.09691 5.49672ZM8.20067 6.65707L9.31309 7.10711L9.31462 7.10331L8.20067 6.65707ZM8.18833 8.68932L7.07052 9.12579L7.07086 9.12664L8.18833 8.68932ZM8.83389 8.96011L9.31072 10.0613L9.31136 10.061L8.83389 8.96011ZM12.7053 7.28107L12.2285 6.17983L12.2278 6.18015L12.7053 7.28107ZM12.9663 6.65119L11.8463 7.0819L11.8482 7.08682L12.9663 6.65119ZM11.5811 5.20369L12.0582 4.10262L12.0573 4.10224L11.5811 5.20369ZM9.98017 5.07811L9.68125 3.91593L9.57002 3.94454L9.46623 3.99373L9.98017 5.07811ZM8.38469 4.53094C7.80415 4.95906 7.35499 5.54115 7.08673 6.21084L9.31462 7.10331C9.41754 6.84637 9.58921 6.62469 9.80914 6.46251L8.38469 4.53094ZM7.08826 6.20704C6.71013 7.14169 6.7038 8.1866 7.07052 9.12579L9.30614 8.25285C9.16225 7.88434 9.16475 7.47377 9.31309 7.10711L7.08826 6.20704ZM7.07086 9.12664C7.15301 9.33657 7.27641 9.5283 7.43416 9.69026L9.1534 8.01568C9.2198 8.08386 9.27148 8.16429 9.30581 8.252L7.07086 9.12664ZM7.43416 9.69026C7.59193 9.85224 7.78087 9.98114 7.99003 10.0689L8.9184 7.8557C9.00714 7.89293 9.08697 7.94748 9.1534 8.01568L7.43416 9.69026ZM7.99003 10.0689C8.19921 10.1566 8.42406 10.2013 8.65116 10.2L8.63738 7.80001C8.73404 7.79946 8.82963 7.81847 8.9184 7.8557L7.99003 10.0689ZM8.65116 10.2C8.87827 10.1987 9.10258 10.1514 9.31072 10.0613L8.35705 7.85892C8.44535 7.82068 8.54071 7.80057 8.63738 7.80001L8.65116 10.2ZM9.31136 10.061L13.1827 8.38199L12.2278 6.18015L8.35641 7.85919L9.31136 10.061ZM13.182 8.38231C13.5857 8.20754 13.9036 7.88263 14.071 7.47884L11.8539 6.55988C11.9238 6.3912 12.0572 6.25399 12.2285 6.17983L13.182 8.38231ZM14.071 7.47884C14.2382 7.07528 14.243 6.62254 14.0845 6.21555L11.8482 7.08682C11.782 6.917 11.784 6.72833 11.8539 6.55988L14.071 7.47884ZM14.0864 6.22048C13.9057 5.75051 13.6335 5.32099 13.2854 4.95725L11.5515 6.61664C11.6791 6.74997 11.7795 6.90807 11.8463 7.08189L14.0864 6.22048ZM13.2854 4.95725C12.9373 4.59349 12.5201 4.3028 12.0582 4.10262L11.1039 6.30476C11.2717 6.37744 11.4239 6.48332 11.5515 6.61664L13.2854 4.95725ZM12.0573 4.10224C11.3077 3.77814 10.4722 3.7125 9.68125 3.91593L10.2791 6.24028C10.5537 6.16964 10.8438 6.19231 11.1048 6.30515L12.0573 4.10224ZM9.46623 3.99373L8.58298 4.41235L9.61085 6.5811L10.4941 6.16248L9.46623 3.99373Z" fill="#E73D1E" mask="url(#path-4-inside-1_3087_12503)"/>
</svg>
