<svg xmlns="http://www.w3.org/2000/svg" xmlns:xlink="http://www.w3.org/1999/xlink" version="1.1" width="24" height="24" viewBox="0 0 256 256" xml:space="preserve">

<defs>
</defs>
<g style="stroke: none; stroke-width: 0; stroke-dasharray: none; stroke-linecap: butt; stroke-linejoin: miter; stroke-miterlimit: 10; fill: none; fill-rule: nonzero; opacity: 1;" transform="translate(1.4065934065934016 1.4065934065934016) scale(2.81 2.81)" >
	<path d="M 66.31 44.465 c -0.845 -0.712 -2.107 -0.604 -2.818 0.239 L 47 64.261 V 2 c 0 -1.104 -0.896 -2 -2 -2 s -2 0.896 -2 2 v 62.261 L 26.508 44.705 c -0.712 -0.845 -1.974 -0.952 -2.818 -0.24 c -0.845 0.712 -0.952 1.974 -0.24 2.818 l 20.021 23.741 c 0.016 0.019 0.037 0.032 0.053 0.051 c 0.058 0.064 0.12 0.121 0.185 0.177 c 0.041 0.034 0.079 0.07 0.122 0.101 c 0.072 0.052 0.149 0.095 0.228 0.138 c 0.042 0.023 0.082 0.049 0.126 0.068 c 0.092 0.041 0.19 0.071 0.289 0.098 c 0.035 0.01 0.068 0.025 0.104 0.032 c 0.136 0.029 0.276 0.046 0.421 0.046 c 0.145 0 0.285 -0.017 0.421 -0.046 c 0.036 -0.008 0.07 -0.023 0.105 -0.033 c 0.098 -0.027 0.195 -0.056 0.287 -0.097 c 0.045 -0.02 0.086 -0.047 0.129 -0.07 c 0.077 -0.042 0.153 -0.084 0.224 -0.135 c 0.045 -0.032 0.085 -0.069 0.127 -0.105 c 0.063 -0.054 0.124 -0.11 0.18 -0.172 c 0.017 -0.019 0.039 -0.033 0.056 -0.053 L 66.55 47.283 C 67.262 46.439 67.154 45.177 66.31 44.465 z" style="stroke: none; stroke-width: 1; stroke-dasharray: none; stroke-linecap: butt; stroke-linejoin: miter; stroke-miterlimit: 10; fill: #E73D1E; fill-rule: nonzero; opacity: 1;" transform=" matrix(1 0 0 1 0 0) " stroke-linecap="round" />
	<path d="M 82.295 90 H 7.706 c -1.104 0 -2 -0.896 -2 -2 V 65.892 c 0 -1.104 0.896 -2 2 -2 s 2 0.896 2 2 V 86 h 70.589 V 65.892 c 0 -1.104 0.896 -2 2 -2 s 2 0.896 2 2 V 88 C 84.295 89.104 83.399 90 82.295 90 z" style="stroke: none; stroke-width: 1; stroke-dasharray: none; stroke-linecap: butt; stroke-linejoin: miter; stroke-miterlimit: 10; fill: #E73D1E; fill-rule: nonzero; opacity: 1;" transform=" matrix(1 0 0 1 0 0) " stroke-linecap="round" />
</g>
</svg>