<svg width="24" height="24" viewBox="0 0 24 24" fill="none" xmlns="http://www.w3.org/2000/svg">
<path d="M17 22L17 15" stroke="#E73D1E" stroke-width="1.2" stroke-miterlimit="10" stroke-linecap="round" stroke-linejoin="round"/>
<path d="M17 5L17 2" stroke="#E73D1E" stroke-width="1.2" stroke-miterlimit="10" stroke-linecap="round" stroke-linejoin="round"/>
<path d="M17 11C18.6569 11 20 9.65685 20 8C20 6.34315 18.6569 5 17 5C15.3431 5 14 6.34315 14 8C14 9.65685 15.3431 11 17 11Z" stroke="#E73D1E" stroke-width="1.2" stroke-miterlimit="10" stroke-linecap="round" stroke-linejoin="round"/>
<path d="M7 22V19" stroke="#E73D1E" stroke-width="1.2" stroke-miterlimit="10" stroke-linecap="round" stroke-linejoin="round"/>
<path d="M7 9L7 2" stroke="#E73D1E" stroke-width="1.2" stroke-miterlimit="10" stroke-linecap="round" stroke-linejoin="round"/>
<path d="M7 19C8.65685 19 10 17.6569 10 16C10 14.3431 8.65685 13 7 13C5.34315 13 4 14.3431 4 16C4 17.6569 5.34315 19 7 19Z" stroke="#E73D1E" stroke-width="1.2" stroke-miterlimit="10" stroke-linecap="round" stroke-linejoin="round"/>
</svg>
