<svg width="20" height="20" viewBox="0 0 20 20" fill="none" xmlns="http://www.w3.org/2000/svg">
<path d="M14.167 18.3333L14.167 12.5" stroke="#E3E2E2" stroke-width="1.2" stroke-miterlimit="10" stroke-linecap="round" stroke-linejoin="round"/>
<path d="M14.167 4.16675L14.167 1.66675" stroke="#E3E2E2" stroke-width="1.2" stroke-miterlimit="10" stroke-linecap="round" stroke-linejoin="round"/>
<path d="M14.167 9.16675C15.5477 9.16675 16.667 8.04746 16.667 6.66675C16.667 5.28604 15.5477 4.16675 14.167 4.16675C12.7863 4.16675 11.667 5.28604 11.667 6.66675C11.667 8.04746 12.7863 9.16675 14.167 9.16675Z" stroke="#E3E2E2" stroke-width="1.2" stroke-miterlimit="10" stroke-linecap="round" stroke-linejoin="round"/>
<path d="M5.83301 18.3333V15.8333" stroke="#E3E2E2" stroke-width="1.2" stroke-miterlimit="10" stroke-linecap="round" stroke-linejoin="round"/>
<path d="M5.83301 7.50008L5.83301 1.66675" stroke="#E3E2E2" stroke-width="1.2" stroke-miterlimit="10" stroke-linecap="round" stroke-linejoin="round"/>
<path d="M5.83301 15.8333C7.21372 15.8333 8.33301 14.714 8.33301 13.3333C8.33301 11.9525 7.21372 10.8333 5.83301 10.8333C4.4523 10.8333 3.33301 11.9525 3.33301 13.3333C3.33301 14.714 4.4523 15.8333 5.83301 15.8333Z" stroke="#E3E2E2" stroke-width="1.2" stroke-miterlimit="10" stroke-linecap="round" stroke-linejoin="round"/>
</svg>
