<svg width="25" height="24" viewBox="0 0 25 24" fill="none" xmlns="http://www.w3.org/2000/svg">
<path d="M7.35 20.1H7.25H4.75C4.49338 20.1 4.28176 20.1863 4.10859 20.3588C3.93562 20.5312 3.8494 20.7426 3.85 20.9998C3.85061 21.2573 3.93699 21.469 4.10884 21.6414C4.28048 21.8137 4.49191 21.9 4.75 21.9H8.25H8.25024C8.50752 21.9006 8.71895 21.8146 8.89129 21.6423C9.06365 21.4699 9.15 21.2581 9.15 21V17.5V17.4H9.25H12.75H12.7502C13.0075 17.4006 13.2189 17.3146 13.3913 17.1423C13.5637 16.9699 13.65 16.7581 13.65 16.5V13V12.9H13.75H17.25H17.2502C17.5075 12.9006 17.7189 12.8146 17.8913 12.6423C18.0637 12.4699 18.15 12.2581 18.15 12V8.5V8.4H18.25H21.75H21.7502C22.0075 8.40061 22.2189 8.31463 22.3913 8.14229C22.5637 7.96993 22.65 7.7581 22.65 7.5C22.65 7.00294 22.2471 6.6 21.75 6.6H20.75H17.2501C16.9926 6.60063 16.781 6.68702 16.6086 6.85883C16.4363 7.03048 16.35 7.24191 16.35 7.5V11V11.1H16.25H12.7502C12.4927 11.1006 12.281 11.187 12.1086 11.3588C11.9363 11.5305 11.85 11.7419 11.85 12V15.5V15.6H11.75L8.25024 15.6L8.25 15.6M7.35 20.1L7.25 16.5C7.25 16.2167 7.346 15.9793 7.538 15.788C7.73 15.5967 7.96734 15.5007 8.25 15.5V15.6M7.35 20.1V20V16.5C7.35 16.2419 7.43635 16.0305 7.60859 15.8588C7.78098 15.687 7.99256 15.6007 8.25 15.6M7.35 20.1L8.25 15.6M18.25 8.6V8.5H18.35H21.75C22.0327 8.50067 22.27 8.405 22.462 8.213C22.654 8.021 22.75 7.78333 22.75 7.5C22.75 6.94772 22.3023 6.5 21.75 6.5H20.75H17.25L18.25 8.6ZM18.25 8.6V12C18.25 12.2833 18.154 12.521 17.962 12.713C17.77 12.905 17.5327 13.0007 17.25 13L18.25 8.6Z" fill="#E73D1E" stroke="#E3E2E2" stroke-width="0.2"/>
</svg>
