<svg width="14" height="17" viewBox="0 0 14 17" fill="none" xmlns="http://www.w3.org/2000/svg">
<path d="M11.7141 2.41965C9.11079 -0.141185 4.88996 -0.141185 2.28662 2.41965C1.66852 3.02351 1.17738 3.74484 0.842051 4.54124C0.506725 5.33764 0.333984 6.19303 0.333984 7.05715C0.333984 7.92126 0.506725 8.77666 0.842051 9.57306C1.17738 10.3695 1.66852 11.0908 2.28662 11.6946L6.99996 16.3321L11.7141 11.6946C12.3322 11.0908 12.8234 10.3695 13.1587 9.57306C13.494 8.77666 13.6668 7.92126 13.6668 7.05715C13.6668 6.19303 13.494 5.33764 13.1587 4.54124C12.8234 3.74484 12.3322 3.02351 11.7141 2.41965ZM6.99996 9.24881C6.44329 9.24881 5.92079 9.03215 5.52662 8.63881C5.13641 8.24777 4.91727 7.71791 4.91727 7.16548C4.91727 6.61305 5.13641 6.08319 5.52662 5.69215C5.91996 5.29881 6.44329 5.08215 6.99996 5.08215C7.55662 5.08215 8.07996 5.29881 8.47329 5.69215C8.8635 6.08319 9.08264 6.61305 9.08264 7.16548C9.08264 7.71791 8.8635 8.24777 8.47329 8.63881C8.07996 9.03215 7.55662 9.24881 6.99996 9.24881Z" fill="#E73D1E"/>
</svg>
