<svg width="25" height="24" viewBox="0 0 25 24" fill="none" xmlns="http://www.w3.org/2000/svg">
<path d="M4.75 19.9875H22.75" stroke="#E73D1E" stroke-width="1.2" stroke-linecap="round"/>
<path d="M4.85156 1.00024L4.85146 19.9006" stroke="#E73D1E" stroke-width="1.2" stroke-linecap="round"/>
<path d="M11.65 22C11.65 22.3314 11.9186 22.6 12.25 22.6C12.5814 22.6 12.85 22.3314 12.85 22H11.65ZM12.6743 2.57574C12.4399 2.34142 12.0601 2.34142 11.8257 2.57574L8.00736 6.39411C7.77304 6.62843 7.77304 7.00833 8.00736 7.24264C8.24167 7.47696 8.62157 7.47696 8.85589 7.24264L12.25 3.84853L15.6441 7.24264C15.8784 7.47696 16.2583 7.47696 16.4926 7.24264C16.727 7.00833 16.727 6.62843 16.4926 6.39411L12.6743 2.57574ZM12.85 22L12.85 3H11.65L11.65 22H12.85Z" fill="#E73D1E"/>
</svg>
