<svg width="217" height="50" viewBox="0 0 217 50" fill="none" xmlns="http://www.w3.org/2000/svg">
<g clip-path="url(#clip0_2955_17327)">
<path d="M4.29125 46.1241C4.66661 45.8094 4.85379 45.3643 4.85379 44.7884C4.85379 44.1992 4.66661 43.7476 4.29125 43.4329C3.91555 43.1186 3.37254 42.9612 2.66221 42.9612H0.757457V46.5958H2.66221C3.37254 46.5958 3.91555 46.4385 4.29125 46.1241ZM4.83392 42.9612C5.3527 43.4043 5.61259 44.0132 5.61259 44.7884C5.61259 45.5639 5.3527 46.1728 4.83392 46.6115C4.31515 47.0522 3.59809 47.2715 2.68308 47.2715H0.757457V49.5684H0V42.2944H2.68308C3.59809 42.2944 4.31515 42.5161 4.83392 42.9612Z" fill="#E3E2E2"/>
<path d="M13.6893 46.1286C14.065 45.8118 14.2522 45.3643 14.2522 44.7884C14.2522 44.1992 14.065 43.7476 13.6893 43.4329C13.314 43.1186 12.771 42.9612 12.0606 42.9612H10.1559V46.6071H12.0606C12.771 46.6071 13.314 46.4477 13.6893 46.1286ZM14.294 49.5684L12.6552 47.2317C12.47 47.2514 12.2798 47.2627 12.0815 47.2627H10.1559V49.5684H9.39844V42.2944H12.0815C12.9965 42.2944 13.7136 42.5161 14.2324 42.9612C14.7511 43.4043 15.011 44.0132 15.011 44.7884C15.011 45.3578 14.8686 45.8363 14.5862 46.2283C14.3024 46.6203 13.8974 46.9017 13.3722 47.0743L15.1238 49.5684H14.294Z" fill="#E3E2E2"/>
<path d="M23.9211 48.9019V49.5664H18.8516V42.2924H23.768V42.9593H19.609V45.5463H23.3169V46.1998H19.609V48.9019H23.9211Z" fill="#E3E2E2"/>
<path d="M35.1924 42.2924V49.5664H34.4646V43.7477L31.6478 48.6428H31.2896L28.4729 43.7787V49.5664H27.7461V42.2924H28.3699L31.4846 47.6858L34.5676 42.2924H35.1924Z" fill="#E3E2E2"/>
<path d="M39.5859 42.2924H40.3434V49.5664H39.5859V42.2924Z" fill="#E3E2E2"/>
<path d="M45.4434 48.8183C44.9233 48.2778 44.6641 47.4915 44.6641 46.4595V42.2929H45.4225V46.4285C45.4225 47.2745 45.6097 47.9036 45.9851 48.3201C46.3608 48.7363 46.9038 48.9447 47.6141 48.9447C48.3312 48.9447 48.8775 48.7363 49.2529 48.3201C49.6286 47.9036 49.8168 47.2745 49.8168 46.4285V42.2929H50.5537V46.4595C50.5537 47.4915 50.2962 48.2778 49.7808 48.8183C49.265 49.3588 48.5426 49.6289 47.6141 49.6289C46.6856 49.6289 45.9622 49.3588 45.4434 48.8183Z" fill="#E3E2E2"/>
<path d="M62.3288 42.2924V49.5664H61.601V43.7477L58.7842 48.6428H58.4264L55.6096 43.7787V49.5664H54.8828V42.2924H55.5066L58.6209 47.6858L61.704 42.2924H62.3288Z" fill="#E3E2E2"/>
<path d="M75.7444 46.1266C76.1197 45.8099 76.3069 45.3624 76.3069 44.7864C76.3069 44.1972 76.1197 43.7456 75.7444 43.431C75.369 43.1166 74.8257 42.9593 74.1153 42.9593H72.2106V46.6051H74.1153C74.8257 46.6051 75.369 46.4457 75.7444 46.1266ZM76.3487 49.5664L74.7099 47.2297C74.5247 47.2495 74.3345 47.2607 74.1362 47.2607H72.2106V49.5664H71.4531V42.2924H74.1362C75.0512 42.2924 75.7683 42.5141 76.2874 42.9593C76.8062 43.4023 77.0657 44.0113 77.0657 44.7864C77.0657 45.3559 76.9233 45.8344 76.6409 46.2264C76.3574 46.6184 75.9524 46.8997 75.4269 47.0724L77.1785 49.5664H76.3487Z" fill="#E3E2E2"/>
<path d="M85.9684 48.9019V49.5664H80.8984V42.2924H85.8152V42.9593H81.6562V45.5463H85.3641V46.1998H81.6562V48.9019H85.9684Z" fill="#E3E2E2"/>
<path d="M94.0224 46.9992L92.3028 43.0941L90.5815 46.9992H94.0224ZM94.2995 47.6238H90.3048L89.4443 49.5664H88.6562L91.9339 42.2924H92.6815L95.9591 49.5664H95.1599L94.2995 47.6238Z" fill="#E3E2E2"/>
<path d="M99.1875 42.2924H99.945V48.9019H103.96V49.5664H99.1875V42.2924Z" fill="#E3E2E2"/>
<path d="M117.077 48.9019V49.5664H112.008V42.2924H116.924V42.9593H112.765V45.5463H116.473V46.1998H112.765V48.9019H117.077Z" fill="#E3E2E2"/>
<path d="M121.358 49.3697C120.87 49.1971 120.493 48.9689 120.227 48.6831L120.523 48.0916C120.783 48.3552 121.127 48.568 121.558 48.7294C121.988 48.8936 122.432 48.9753 122.889 48.9753C123.531 48.9753 124.012 48.8558 124.334 48.6167C124.654 48.3773 124.815 48.0674 124.815 47.6863C124.815 47.3961 124.728 47.1635 124.554 46.9908C124.38 46.8181 124.166 46.6829 123.914 46.59C123.661 46.497 123.309 46.3952 122.858 46.2845C122.319 46.1448 121.889 46.012 121.567 45.8833C121.247 45.7549 120.972 45.5601 120.743 45.2965C120.514 45.0329 120.401 44.6763 120.401 44.2267C120.401 43.8589 120.496 43.5244 120.687 43.2234C120.878 42.922 121.172 42.6829 121.567 42.501C121.964 42.3219 122.456 42.2309 123.043 42.2309C123.453 42.2309 123.853 42.2885 124.246 42.4036C124.639 42.5167 124.979 42.674 125.265 42.8757L125.009 43.489C124.709 43.2874 124.388 43.1369 124.047 43.0371C123.705 42.9353 123.371 42.8866 123.043 42.8866C122.415 42.8866 121.942 43.0085 121.624 43.2544C121.307 43.5003 121.148 43.817 121.148 44.2066C121.148 44.4968 121.235 44.7294 121.409 44.9065C121.583 45.0839 121.802 45.2188 122.065 45.3118C122.327 45.4051 122.681 45.5069 123.125 45.6176C123.651 45.7504 124.075 45.8812 124.4 46.0076C124.725 46.136 124.999 46.3308 125.225 46.59C125.449 46.8491 125.562 47.2013 125.562 47.6444C125.562 48.0119 125.464 48.3463 125.271 48.6477C125.076 48.9488 124.777 49.1882 124.374 49.3653C123.972 49.5404 123.477 49.6289 122.889 49.6289C122.357 49.6289 121.846 49.5424 121.358 49.3697Z" fill="#E3E2E2"/>
<path d="M130.645 42.9612H128.125V42.2944H133.922V42.9612H131.403V49.5684H130.645V42.9612Z" fill="#E3E2E2"/>
<path d="M141.409 46.9992L139.69 43.0941L137.968 46.9992H141.409ZM141.686 47.6238H137.692L136.831 49.5664H136.043L139.321 42.2924H140.068L143.346 49.5664H142.547L141.686 47.6238Z" fill="#E3E2E2"/>
<path d="M147.973 42.9593H145.453V42.2924H151.251V42.9593H148.73V49.5664H147.973V42.9593Z" fill="#E3E2E2"/>
<path d="M159.566 48.9019V49.5664H154.496V42.2924H159.412V42.9593H155.254V45.5463H158.961V46.1998H155.254V48.9019H159.566Z" fill="#E3E2E2"/>
<path d="M24.817 14.0559H17.6237V14.4819H18.8995C19.3557 14.4753 20.5162 14.5225 21.2746 15.3526C21.6776 15.7937 21.973 16.3212 21.973 17.7671C21.973 20.4086 21.9345 22.0051 21.8552 22.6478C21.6515 23.9713 20.6841 25.1217 18.9782 26.0852C17.0363 27.1819 15.827 27.4672 13.9221 27.4527C13.4752 27.449 11.7634 27.3794 9.94746 26.6008C5.77599 24.8128 4.12171 20.5722 3.85056 19.8773C3.22491 18.2729 2.95469 16.5298 2.8698 15.9651C2.8073 15.5502 2.64094 14.4196 2.64094 13.2641C2.64094 9.59012 3.73115 6.66608 5.88109 4.57694C6.85283 3.63288 7.94273 2.80301 9.20116 2.29464C11.7538 1.26155 14.827 1.52014 17.3432 2.53624C18.1567 2.86467 18.9393 3.27677 19.6763 3.75588C19.7118 3.77884 19.7419 3.80433 19.7771 3.82729C21.38 5.07241 22.7271 6.91334 23.363 9.34695V9.3869H23.377C23.377 9.38753 23.3773 9.38816 23.3776 9.38879V9.3869H23.784V3.67661H23.363V3.69485C22.8114 4.08745 22.7831 4.04121 22.0881 3.54196C21.8322 3.3573 21.4615 3.13238 20.9764 2.86215C18.5842 1.52989 15.7636 1.17379 13.0701 1.19738C12.2439 1.20399 11.4145 1.22381 10.597 1.35184C7.72568 1.80138 5.72313 3.39002 5.00762 3.95092C3.58345 5.06832 2.40151 6.48425 1.59209 8.11599C0.535463 10.2467 0 12.6866 0 15.3646C0 16.8582 0.207095 18.1468 0.619422 19.3296C2.23514 23.9687 6.22066 26.8396 10.853 27.7727C11.2889 27.8604 12.584 28.0986 14.2763 28.0476C15.6529 28.0064 17.0176 27.7859 18.3327 27.3697C18.7204 27.2479 19.0973 27.1073 19.4621 26.9472C19.8337 26.7843 20.1667 26.6298 20.463 26.4785C20.765 26.3275 21.0588 26.1755 21.3477 26.0245C21.6304 25.8738 21.8601 25.749 22.034 25.6508L24.8232 23.8608V22.4742C24.8211 22.4285 24.8192 22.3826 24.817 22.337V14.0559Z" fill="#E3E2E2"/>
<path d="M145.584 23.9197C145.584 23.6671 145.554 5.48646 145.554 5.23354C145.554 3.78803 145.849 3.26048 146.252 2.81912C147.011 1.98925 148.607 1.94867 148.607 1.94867V1.52273H142.568H139.688V1.95653H139.812C140.916 2.03644 142.076 2.452 142.505 3.57475C142.704 4.09758 142.741 4.67799 142.741 5.23354C142.741 5.48646 142.771 23.6671 142.771 23.9197C142.771 25.3652 142.476 25.8931 142.073 26.3342C141.314 27.1643 139.718 27.2049 139.718 27.2049V27.6309H148.637V27.2049C148.637 27.2049 147.041 27.1643 146.282 26.3342C145.879 25.8931 145.584 25.3652 145.584 23.9197Z" fill="#E3E2E2"/>
<path d="M41.1992 14.5511H37.2296L37.2414 1.96683H39.7977C42.384 1.96683 44.3582 2.67023 45.6655 4.05723C46.9777 5.44957 47.6428 7.01745 47.6428 8.71808C47.6428 10.4165 47.131 11.8293 46.1232 12.9171C45.1166 14.0009 43.4596 14.5511 41.1992 14.5511ZM55.9914 27.0164C55.5119 26.8789 55.061 26.7402 54.6191 26.4986C53.7279 26.0094 52.9701 25.2959 52.3215 24.5142C51.0335 22.9643 49.9131 21.2297 48.7486 19.5853C48.2567 18.8917 47.8465 18.3113 47.4911 17.8064V17.807C47.5091 17.8325 45.4721 14.943 45.0886 14.3991C45.3079 14.3268 45.5327 14.2456 45.7644 14.1427C47.2003 13.5048 48.1341 12.5333 48.7122 11.7809C48.7893 11.6859 48.8652 11.5836 48.9408 11.4757C48.9694 11.4351 49.0132 11.3823 49.0393 11.3442C49.0378 11.3417 49.0359 11.3398 49.0347 11.3376C49.202 11.0853 49.3665 10.8135 49.5238 10.5002C49.9759 9.59986 50.2051 8.53028 50.2051 7.32354C50.2051 5.52822 49.4806 4.13462 47.9892 3.06409C47.3073 2.57523 46.556 2.19459 45.7407 1.92279C44.8147 1.61355 43.8308 1.52327 42.8557 1.52327H37.1198V1.53113L31.3242 1.52327V1.53113V1.95708H31.5338C32.0459 1.96809 33.0382 2.0826 33.6999 2.82784C34.1915 3.38151 34.398 4.01665 34.398 5.24226C34.398 5.54646 34.4067 23.2081 34.4067 23.2081C34.4067 23.2081 34.4076 23.6677 34.4076 23.9206C34.4076 25.3661 34.1126 25.894 33.7092 26.335C32.9508 27.1649 31.3547 27.2055 31.3547 27.2055V27.6314H40.2738V27.2055C40.2738 27.2055 38.6777 27.1649 37.919 26.335C37.516 25.894 37.2206 25.3661 37.2206 23.9206C37.2206 23.6677 37.2215 23.2081 37.2215 23.2081L37.2289 14.9959H40.5838C41.4352 14.9959 43.059 15.693 44.4108 17.9095C45.1502 19.1569 45.9068 20.3947 46.696 21.6109C47.3045 22.5487 47.9311 23.4758 48.6024 24.3695C49.0748 24.999 49.5676 25.6206 50.1236 26.1768C50.5935 26.6468 51.1498 27.0158 51.7589 27.2734C52.4449 27.5641 53.2475 27.6091 53.9711 27.6314C54.496 27.6478 55.0218 27.6314 55.547 27.6314C56.0383 27.6308 56.5293 27.6314 57.0206 27.6314V27.2055C57.0206 27.2486 56.2112 27.0711 55.9914 27.0164Z" fill="#E3E2E2"/>
<path d="M81.1675 20.5449C80.3428 22.7448 79.1503 24.7147 77.1478 25.9469C75.3641 27.0637 73.5223 27.6306 71.6768 27.6306C70.0627 27.6306 68.5548 27.2921 67.196 26.6268C65.838 25.9614 64.6993 25.0988 63.8118 24.062C62.9337 23.0386 62.1762 21.8646 61.5593 20.5717C60.4007 18.1705 59.8123 15.5531 59.8123 13.2362C59.8123 9.47856 60.8024 6.58283 62.7549 4.62959C64.6909 2.69145 67.0623 1.70995 69.8027 1.70995C73.2686 1.70995 76.2214 3.03371 78.5791 5.64632C80.9399 8.26301 81.8926 11.9603 81.8926 16.6353C81.8926 18.0336 81.6488 19.3489 81.1675 20.5449ZM80.2629 4.34552C79.3475 3.47098 78.0735 2.71976 76.4767 2.1145C74.8697 1.50453 73.0366 1.19592 71.0285 1.19592C66.7218 1.19592 63.3557 2.51371 61.0254 5.1131C58.696 7.71061 57.5156 11.0908 57.5156 15.1628C57.5156 17.4082 57.9883 19.5125 58.9202 21.4163C59.85 23.3155 61.3326 24.9151 63.3277 26.1706C65.3315 27.4327 67.7523 28.0723 70.5235 28.0723C76.0532 28.0723 80.0393 25.8906 82.3703 21.5865C83.5951 19.3115 84.2164 16.4758 84.2164 13.1611C84.2164 11.3009 83.6685 9.35682 82.5879 7.38093C81.9679 6.24969 81.1855 5.22887 80.2629 4.34552Z" fill="#E3E2E2"/>
<path d="M172.253 24.5778C170.513 26.3178 168.088 27.1716 165.641 27.1716H161.73C161.214 27.1087 160.276 26.9183 159.743 26.3342C159.34 25.8931 159.044 25.3656 159.044 23.9197C159.044 23.6671 159.015 5.48646 159.015 5.23385C159.015 3.78803 159.31 3.26048 159.713 2.81944C160.471 1.98925 162.068 1.94867 162.068 1.94867V1.52273H156.029H153.148V1.95654H153.273C154.376 2.03644 155.536 2.45232 155.965 3.57475C156.165 4.0979 156.201 4.6783 156.201 5.23385C156.201 5.48646 156.232 23.6671 156.232 23.9197C156.232 25.3656 155.936 25.8931 155.533 26.3342C154.775 27.1643 153.178 27.2049 153.178 27.2049V27.6309H157.175H162.098H167.66H170.473H172.798V24.2573H172.56C172.46 24.3658 172.358 24.4731 172.253 24.5778Z" fill="#E3E2E2"/>
<path d="M195.011 24.5778C193.271 26.3178 190.845 27.1716 188.399 27.1716H184.488C183.972 27.1087 183.034 26.9183 182.501 26.3342C182.098 25.8931 181.802 25.3656 181.802 23.9197C181.802 23.6671 181.772 5.48646 181.772 5.23385C181.772 3.78803 182.068 3.26048 182.471 2.81944C183.229 1.98925 184.825 1.94867 184.825 1.94867V1.52273H178.786H175.906V1.95654H176.03C177.134 2.03644 178.294 2.45232 178.723 3.57475C178.923 4.0979 178.959 4.6783 178.959 5.23385C178.959 5.48646 178.989 23.6671 178.989 23.9197C178.989 25.3656 178.694 25.8931 178.291 26.3342C177.533 27.1643 175.936 27.2049 175.936 27.2049V27.6309H179.933H184.856H190.418H193.23H195.556V24.2573H195.317C195.218 24.3658 195.116 24.4731 195.011 24.5778Z" fill="#E3E2E2"/>
<path d="M216.115 24.2573C216.015 24.3658 215.913 24.4731 215.808 24.5778C214.068 26.3178 211.643 27.1716 209.196 27.1716H206.332C205.816 27.1087 204.878 26.9183 204.345 26.3342C203.942 25.8931 203.646 25.3656 203.646 23.9197C203.646 23.7914 203.639 19 203.631 14.302C206.919 14.2967 209.602 14.2923 209.697 14.2923C211.126 14.2923 211.648 14.5911 212.083 14.9988C212.904 15.7658 212.945 17.3811 212.945 17.3811H213.365V10.7479H212.936V10.874C212.857 11.9905 212.447 13.1635 211.337 13.598C210.821 13.7996 210.246 13.8367 209.697 13.8367C209.602 13.8367 206.919 13.8408 203.63 13.8471C203.623 9.49424 203.616 5.35371 203.616 5.23385C203.616 3.78803 203.912 3.26048 204.315 2.81943C204.873 2.20851 205.88 2.02669 206.376 1.97226C209.434 1.96754 211.854 1.96314 211.944 1.96314C213.373 1.96314 213.895 2.26199 214.331 2.66969C215.151 3.43664 215.191 5.05202 215.191 5.05202H215.613V1.52273H206.669H203.716H200.631H197.75V1.95653H197.875C198.978 2.03644 200.138 2.452 200.567 3.57475C200.767 4.09789 200.804 4.6783 200.804 5.23385C200.804 5.48646 200.833 23.6671 200.833 23.9197C200.833 25.3656 200.538 25.8931 200.135 26.3342C199.377 27.1643 197.78 27.2049 197.78 27.2049V27.6309H200.73H206.7H211.215H214.028H216.353V24.2573H216.115Z" fill="#E3E2E2"/>
<path d="M97.6497 12.2437C96.5094 11.8869 95.4036 11.4978 94.3647 11.0876C93.2643 10.6557 92.3687 10.0322 91.7008 9.23594C91.0049 8.40419 90.6519 7.30032 90.6519 5.95265C90.6519 4.55559 91.2567 3.41113 92.4499 2.55138C93.5827 1.73536 95.0883 1.32199 96.9248 1.32199C98.7809 1.32199 100.453 1.97821 101.894 3.27052C102.436 3.76567 102.77 4.07774 102.898 4.20609C102.995 4.30486 103.173 4.51092 103.59 5.16808C103.772 5.45718 103.937 5.76799 104.091 6.08917C104.248 6.48523 104.389 6.89545 104.503 7.33052V7.37047H104.517C104.517 7.3711 104.517 7.37173 104.517 7.37236V7.37047H104.924V2.47494H104.503V2.49319C103.999 2.85181 103.909 2.82538 103.371 2.44065L101.82 1.70547C101.547 1.61896 101.215 1.5142 100.774 1.37484C99.4958 0.968718 98.3863 0.763926 97.4743 0.763926C94.9891 0.763926 92.9489 1.41668 91.4097 2.70395C89.8879 3.9777 89.1481 5.65348 89.1481 7.82504C89.1481 9.96326 90.197 11.6305 92.355 12.9216C93.6561 13.6911 96.2028 14.7201 99.9209 15.9778C100.996 16.3581 101.959 16.9803 102.788 17.8281C103.664 18.7285 104.108 19.861 104.108 21.1967C104.108 22.98 103.47 24.4432 102.211 25.5439C100.985 26.6188 99.3338 27.1637 97.3042 27.1637C95.2842 27.1637 93.5329 26.6056 92.0982 25.5071C91.5173 25.0733 90.9725 24.4863 90.4591 23.7778C90.4433 23.7549 90.4271 23.7354 90.4116 23.7124C90.3805 23.6687 90.3506 23.6193 90.3201 23.5749C90.0334 23.1273 89.8251 22.7035 89.6793 22.3474C89.4193 21.6972 89.2952 21.3562 89.2567 21.196C89.2088 21.0004 89.0542 20.2794 89.0919 20.2794H88.7212C88.7212 20.7169 88.7218 21.1545 88.7212 21.5918C88.7212 22.0602 88.7069 22.5286 88.7212 22.9964C88.7408 23.641 88.78 24.356 89.0328 24.9673C89.257 25.5096 89.5782 26.0057 89.9874 26.4244C89.9915 26.4285 89.9961 26.4316 89.9998 26.436L90.0008 26.4364C90.0073 26.4433 90.0151 26.4511 90.0179 26.4533C91.0515 26.9976 92.1056 27.3757 93.1178 27.5566C94.1439 27.7416 95.533 27.8359 97.2473 27.8359C99.6242 27.8359 101.639 27.086 103.237 25.6071C104.835 24.127 105.611 22.1716 105.611 19.6301C105.611 18.1273 105.16 16.907 104.233 15.9007C102.833 14.4152 100.616 13.1846 97.6497 12.2437Z" fill="#E3E2E2"/>
<path d="M131.034 1.94867C131.118 1.95181 131.202 1.95968 131.286 1.9688C131.298 1.96975 131.321 1.97415 131.335 1.97541C131.614 2.01347 131.977 2.10753 132.337 2.35228C132.504 2.46553 132.654 2.59986 132.741 2.70304C133.292 3.35359 132.932 4.63332 132.752 5.28513C132.477 5.94449 132.191 6.59883 131.892 7.24907C131.587 7.91409 131.28 8.57818 130.972 9.24226C130.601 10.0413 130.229 10.84 129.857 11.6391C129.451 12.5092 129.045 13.38 128.64 14.2498C128.23 15.1278 127.821 16.0058 127.412 16.8838C127.028 17.7058 126.645 18.5281 126.263 19.3501C126 19.9154 124.498 23.1757 123.796 24.7056C122.899 22.6057 115.724 7.37867 114.902 5.44147C114.864 5.35119 114.842 5.29425 114.832 5.26405C114.674 4.86485 114.504 4.4238 114.324 3.92393C114.235 3.67604 114.143 3.42028 114.133 3.15446C114.13 3.06638 114.138 3.00095 114.16 2.92482C114.296 2.46049 114.979 2.26986 115.515 2.12012C115.844 2.02794 116.148 1.98736 116.324 1.9688C116.407 1.95968 116.491 1.95181 116.576 1.94867V1.52273H107.656V1.95653H107.781C108.41 2.00183 109.041 2.17768 109.561 2.50957C109.564 2.50611 109.825 2.67756 109.948 2.78042C111.108 3.74588 111.845 4.91078 112.32 5.96746C113.614 8.85438 118.635 19.5115 120.164 22.8879L122.335 27.6309H122.779H122.871H122.97L125.141 22.8879C126.67 19.5115 131.69 8.85438 132.984 5.96746C133.461 4.91078 134.197 3.74588 135.357 2.78042C135.481 2.67756 135.741 2.50611 135.744 2.50957C136.264 2.17768 136.895 2.00183 137.524 1.95653H137.648V1.52273H131.034V1.94867Z" fill="#E3E2E2"/>
</g>
<defs>
<clipPath id="clip0_2955_17327">
<rect width="217" height="50" fill="white"/>
</clipPath>
</defs>
</svg>
