<svg width="57" height="69" viewBox="0 0 57 69" fill="none" xmlns="http://www.w3.org/2000/svg">
<circle cx="28.5" cy="28.5" r="28.5" fill="#1A1A1A"/>
<circle cx="1.5" cy="1.5" r="1.5" transform="matrix(1 0 0 -1 27 69)" fill="#1A1A1A"/>
<circle cx="28.5" cy="28.5" r="24.5" fill="#E3E2E2"/>
<path d="M46.1456 37.9376C45.3167 37.7021 44.5877 37.3156 43.9425 36.7428C42.4039 35.3722 41.3216 33.4956 40.1317 31.8334C39.7233 31.2641 39.383 30.7862 39.0873 30.375C39.1003 30.3926 37.7973 28.5652 37.2642 27.8167C37.1961 27.7183 37.2393 27.5883 37.3489 27.5461C37.8346 27.3528 38.8277 26.6781 38.9391 26.5903C39.7061 25.9999 40.3368 25.2373 40.7751 24.3728C41.1505 23.6348 41.3412 22.7562 41.3412 21.7652C41.3412 20.2893 40.7393 19.1437 39.501 18.2651C38.9348 17.8645 38.3108 17.5517 37.6344 17.3268C36.8649 17.0738 36.0484 17 35.2382 17C35.2382 17 28.0552 17.007 28.0552 17C28.0552 17 28.0275 17 27.9783 17C27.5695 17 25.6639 17 25.6639 17.007V17.3549C25.6639 17.3549 25.8371 17.3549 25.8378 17.3549C26.9483 17.3549 27.8452 17.9594 28.117 19.0558C28.2529 19.604 28.2399 20.1768 28.2259 20.7426C28.2308 20.5529 26.6982 19.9976 26.4998 19.9168C25.8497 19.6602 25.181 19.4494 24.5004 19.2913C23.1392 18.9715 21.732 18.8485 20.336 18.9293C18.0076 19.0699 16.003 19.7727 14.1581 21.203C12.9757 22.1202 11.9941 23.2834 11.3215 24.6223C10.4446 26.3724 10 28.379 10 30.5753C10 31.8053 10.1721 32.8631 10.5141 33.833C11.8561 37.6424 15.1654 40.0004 19.0113 40.7665C19.3737 40.8403 20.4494 41.0336 21.8542 40.9949C25.18 40.893 27.8631 39.3011 30.588 37.5686V30.0658H25.6474V30.4172H25.6931C26.0717 30.4102 27.0357 30.4488 27.6654 31.1306C28.0001 31.4925 28.2452 31.9283 28.2452 33.1161C28.2452 35.2844 28.2136 36.0294 28.1476 36.56C27.9783 37.6459 27.1748 38.5913 25.7584 39.3819C24.1454 40.2816 23.1417 40.517 21.5599 40.503C21.1894 40.503 19.7677 40.4432 18.2594 39.8036C14.0679 38.029 12.1925 33.1407 12.1925 28.8534C12.1925 25.8347 13.0986 23.4345 14.8837 21.7161C15.69 20.9429 16.5951 20.2612 17.6402 19.843C19.7597 18.9926 22.3111 19.2069 24.401 20.0398C25.076 20.3104 25.7261 20.6477 26.3379 21.0413C26.3667 21.0624 26.3948 21.0835 26.4229 21.1011C27.7613 22.1307 28.8875 23.6524 29.4115 25.6695H30.6112V23.3326V17.3655H32.6994C34.8466 17.3655 36.486 17.9418 37.5719 19.0804C38.6616 20.226 39.213 21.5122 39.213 22.9109C39.213 24.3025 38.7887 25.4657 37.9515 26.3583C37.1157 27.2474 35.7393 27.7007 33.8626 27.7007H30.6112V28.0662C30.6112 28.0662 33.3498 28.0662 33.3523 28.0662C34.7925 28.0662 35.9546 29.5176 36.6233 30.6175C37.6277 32.2692 38.67 33.8998 39.8055 35.4671C40.7435 36.7639 41.8269 38.0571 43.4867 38.3558C44.6319 38.5596 45.8421 38.4436 47 38.4436V38.0922C47 38.1274 46.3285 37.9833 46.1456 37.9376Z" fill="#EF3827"/>
<path d="M47 40.5H31V41H47V40.5Z" fill="#272D34"/>
<path d="M28.5013 62L22.6042 55.25L34.3984 55.25L28.5013 62Z" fill="#1A1A1A"/>
</svg>
