<svg width="24" height="24" viewBox="0 0 24 24" fill="none" xmlns="http://www.w3.org/2000/svg">
<path d="M13.6525 7.08877C13.5081 6.73945 13.2175 6.46018 12.9294 6.23859L12.7964 6.14995C12.1716 5.8142 11.494 5.87778 10.8436 6.07888L6.68052 7.34654C6.13006 7.62109 5.87851 7.97928 5.64978 8.53413L4.1987 11.8227C4.16009 12.0419 4.14203 12.2527 4.17654 12.4736C4.23824 12.7018 4.36101 12.8413 4.55325 12.9749C4.92466 13.1752 5.3525 13.2278 5.75988 13.1114C6.13385 12.966 6.13385 12.966 6.5493 12.0567L7.74416 9.38518L9.38393 8.94199L8.82461 11.0021C8.64885 11.6826 8.46622 12.3552 8.42163 13.0598L7.87174 17.1895C7.85747 17.3174 7.85362 17.3839 7.76648 17.4797L4.90779 20.6863C4.7395 20.869 4.71478 21.0021 4.70559 21.2514C4.72297 21.7688 4.99472 22.1411 5.35097 22.5034C5.55566 22.6619 5.75288 22.706 6.00934 22.6915C6.38027 22.649 6.74988 22.4611 6.99352 22.1741L9.5612 19.2681C10.3471 18.5018 10.4254 18.1823 10.6248 15.6784L12.3927 17.1393C12.5298 17.2716 12.568 17.397 12.5916 17.5848L12.8795 21.3123C12.9003 21.5608 12.9288 21.7541 13.0623 21.9715C13.3032 22.2717 13.6231 22.3897 13.993 22.459C14.2072 22.4812 14.7198 22.459 15.0567 22.1931C15.3075 21.9039 15.3878 21.565 15.3846 21.1903L15.0854 16.8336C15.0742 16.6637 15.0666 16.5059 15.0123 16.3431C14.9348 16.0063 14.5147 15.6156 14.3143 15.4623L12.3976 13.817L13.151 10.8034L13.8157 11.7784C14.1252 12.1922 14.4458 12.4074 14.9571 12.4966L18.563 13.125C18.9657 13.1311 19.3183 13.0809 19.6214 12.7977C19.8195 12.6091 19.8563 12.4152 19.8644 12.1507L19.8652 12.0443C19.8675 11.763 19.8208 11.55 19.7101 11.2909C19.4796 10.9876 19.0869 10.8659 18.9194 10.843L15.5442 10.2715L13.6525 7.08877Z" fill="#E73D1E"/>
<circle cx="13.3728" cy="3.40206" r="2.17159" fill="#E73D1E"/>
</svg>
