<svg width="25" height="24" viewBox="0 0 25 24" fill="none" xmlns="http://www.w3.org/2000/svg">
<path d="M16 3C14.5 4.5 6.5 12 6.5 12L12.7708 13.4471C12.7708 13.4471 10.5 18 9.27079 21.4471C11.5 19.5 18.5 12.5 18.5 12.5L13 11C13 11 15 6.5 16 3Z" stroke="#E73D1E" stroke-width="1.2"/>
<path fill-rule="evenodd" clip-rule="evenodd" d="M12.5 1C12.9113 1 13.3174 1.02258 13.717 1.06656C14.1115 1.10998 14.331 1.52978 14.1668 1.89105C14.054 2.13921 13.7904 2.28038 13.5193 2.25237C13.1842 2.21774 12.8442 2.2 12.5 2.2C7.08761 2.2 2.7 6.58761 2.7 12C2.7 15.2534 4.28531 18.1365 6.72558 19.9189C6.95487 20.0864 7.05378 20.3843 6.95398 20.6502C6.81919 21.0092 6.3888 21.1556 6.07762 20.9315C3.30506 18.9343 1.5 15.6779 1.5 12C1.5 5.92487 6.42487 1 12.5 1ZM11.0709 22.1703C10.9353 22.5315 11.1662 22.9267 11.5506 22.9596C11.8635 22.9863 12.1802 23 12.5 23C18.5751 23 23.5 18.0751 23.5 12C23.5 8.42091 21.7907 5.24106 19.1438 3.23227C18.8469 3.00692 18.4249 3.12865 18.2706 3.46801C18.1493 3.73508 18.2379 4.04917 18.4705 4.22805C20.7992 6.01971 22.3 8.8346 22.3 12C22.3 17.4124 17.9124 21.8 12.5 21.8C12.237 21.8 11.9765 21.7896 11.7187 21.7693C11.4376 21.7471 11.17 21.9063 11.0709 22.1703Z" fill="#E73D1E"/>
</svg>
