<svg viewBox="0 0 24 24" preserveAspectRatio="xMidYMin meet" xmlns="http://www.w3.org/2000/svg">
    <defs>
        <style>
            .sprite {
                display: none;
            }

            .sprite:target {
                display: inline;
            }
        </style>
    </defs>

    <symbol viewBox="0 0 24 24" class="sprite" id="size">
        <path stroke="#E73D1E" stroke-linecap="round" stroke-width="1.2"
            d="M3 4h11m-7 6V4m6 16v-6m0 0h7M5 20h18M5 1v19m16-10v12" />
    </symbol>


    <symbol viewBox="0 0 24 24" class="sprite" fill="none" id="bath">
        <path stroke="#E73D1E" stroke-width="1.2"
            d="M4.8 12.9v-.2a.8.8 0 0 1 .7-.7h13a.8.8 0 0 1 .7.9v.6c-.2 2.6-2.4 5-5 5.2h-.5a45.6 45.6 0 0 1-3.4 0h-.5a5.8 5.8 0 0 1-5-5.2V13Z" />
        <path stroke="#E73D1E" stroke-linecap="round" stroke-width="1.2" d="M7.2 18.4 6.4 20m10.4-1.6.8 1.6M4 12h16" />
        <path stroke="#E73D1E" stroke-width="1.2"
            d="M9.6 5.8v-.2a3 3 0 0 0-1.2-1.3 2.4 2.4 0 0 0-3 .6c-.4.5-.6 1-.6 1.6V12" />
        <mask id="a" fill="#fff">
            <path
                d="M9.1 5.5c-.4.3-.7.7-.9 1.2-.3.6-.3 1.3 0 2a.5.5 0 0 0 .4.3h.2l4-1.7a.5.5 0 0 0 .2-.6 2.6 2.6 0 0 0-1.4-1.5c-.5-.2-1-.3-1.6-.1l-.9.4Z" />
        </mask>
        <path fill="#E73D1E"
            d="m9.1 5.5-.5-1h-.2l.7 1Zm-.9 1.2 1.1.4-1.1-.4Zm0 2L7 9l1-.4Zm.6.3.5 1-.5-1Zm4-1.7-.6-1.1.5 1Zm.2-.6-1.2.4 1.2-.4Zm-1.4-1.5.5-1.1-.5 1.1ZM10 5.1l-.3-1.2h-.2l.5 1.2Zm-1.6-.6c-.6.5-1 1-1.3 1.7l2.2.9c.1-.3.3-.5.5-.6l-1.4-2ZM7 6.2a4 4 0 0 0 0 3l2.2-1v-1L7 6.2Zm0 3 .3.5L9.2 8l.1.3-2.2.8Zm.3.5.6.4 1-2.2.2.1-1.8 1.7Zm.6.4.7.1V7.8h.2l-1 2.3Zm.7.1.6-.1-1-2.2.3-.1v2.4Zm.6-.1 3.9-1.7-1-2.2-3.8 1.7 1 2.2Zm3.9-1.7c.4-.2.7-.5.9-1l-2.2-.8c0-.2.2-.3.3-.4l1 2.2Zm.9-1V6.3l-2.3.9v-.5l2.3.9Zm0-1.2L13.3 5l-1.7 1.6.2.5 2.3-.9ZM13.3 5 12 4l-1 2.2c.2 0 .3.2.5.3L13.3 5ZM12 4a4 4 0 0 0-2.4-.2l.6 2.3.8.1L12 4ZM9.5 4l-1 .4 1.1 2.2.9-.4-1-2.2Z"
            mask="url(#a)" />
    </symbol>

    <symbol viewBox="0 0 24 24" class="sprite" id="man">
        <path
            d="M13.6525 7.08877C13.5081 6.73945 13.2175 6.46018 12.9294 6.23859L12.7964 6.14995C12.1716 5.8142 11.494 5.87778 10.8436 6.07888L6.68052 7.34654C6.13006 7.62109 5.87851 7.97928 5.64978 8.53413L4.1987 11.8227C4.16009 12.0419 4.14203 12.2527 4.17654 12.4736C4.23824 12.7018 4.36101 12.8413 4.55325 12.9749C4.92466 13.1752 5.3525 13.2278 5.75988 13.1114C6.13385 12.966 6.13385 12.966 6.5493 12.0567L7.74416 9.38518L9.38393 8.94199L8.82461 11.0021C8.64885 11.6826 8.46622 12.3552 8.42163 13.0598L7.87174 17.1895C7.85747 17.3174 7.85362 17.3839 7.76648 17.4797L4.90779 20.6863C4.7395 20.869 4.71478 21.0021 4.70559 21.2514C4.72297 21.7688 4.99472 22.1411 5.35097 22.5034C5.55566 22.6619 5.75288 22.706 6.00934 22.6915C6.38027 22.649 6.74988 22.4611 6.99352 22.1741L9.5612 19.2681C10.3471 18.5018 10.4254 18.1823 10.6248 15.6784L12.3927 17.1393C12.5298 17.2716 12.568 17.397 12.5916 17.5848L12.8795 21.3123C12.9003 21.5608 12.9288 21.7541 13.0623 21.9715C13.3032 22.2717 13.6231 22.3897 13.993 22.459C14.2072 22.4812 14.7198 22.459 15.0567 22.1931C15.3075 21.9039 15.3878 21.565 15.3846 21.1903L15.0854 16.8336C15.0742 16.6637 15.0666 16.5059 15.0123 16.3431C14.9348 16.0063 14.5147 15.6156 14.3143 15.4623L12.3976 13.817L13.151 10.8034L13.8157 11.7784C14.1252 12.1922 14.4458 12.4074 14.9571 12.4966L18.563 13.125C18.9657 13.1311 19.3183 13.0809 19.6214 12.7977C19.8195 12.6091 19.8563 12.4152 19.8644 12.1507L19.8652 12.0443C19.8675 11.763 19.8208 11.55 19.7101 11.2909C19.4796 10.9876 19.0869 10.8659 18.9194 10.843L15.5442 10.2715L13.6525 7.08877Z"
            fill="#E73D1E" />
        <circle cx="13.3728" cy="3.40206" r="2.17159" fill="#E73D1E" />
    </symbol>

    <symbol viewBox="0 0 24 24" class="sprite" id='car'>
        <path
            d="M20.2775 10.1804L19.8092 9.00958L18.9788 6.93333C18.2658 5.15125 16.5654 4 14.6458 4H9.35417C7.435 4 5.73417 5.15125 5.02125 6.93333L4.19083 9.00958L3.7225 10.1804C2.7175 10.5625 2 11.5275 2 12.6667V14.6667C2 15.3383 2.25667 15.9446 2.66667 16.4137V18.6667C2.66667 19.4029 3.26375 20 4 20H5.33333C6.06958 20 6.66667 19.4029 6.66667 18.6667V17.3333H17.3333V18.6667C17.3333 19.4029 17.9304 20 18.6667 20H20C20.7362 20 21.3333 19.4029 21.3333 18.6667V16.4137C21.7433 15.945 22 15.3387 22 14.6667V12.6667C22 11.5275 21.2825 10.5625 20.2775 10.1804ZM7.49708 7.92375C7.80083 7.16458 8.53625 6.66667 9.35417 6.66667H14.6458C15.4638 6.66667 16.1992 7.16458 16.5029 7.92375L17.3333 10H6.66667L7.49708 7.92375ZM5.33333 14.6583C4.53333 14.6583 4 14.1267 4 13.3292C4 12.5317 4.53333 12 5.33333 12C6.13333 12 7.33333 13.1963 7.33333 13.9938C7.33333 14.7913 6.13333 14.6583 5.33333 14.6583ZM18.6667 14.6583C17.8667 14.6583 16.6667 14.7913 16.6667 13.9938C16.6667 13.1963 17.8667 12 18.6667 12C19.4667 12 20 12.5317 20 13.3292C20 14.1267 19.4667 14.6583 18.6667 14.6583Z"
            fill="#E73D1E" />
    </symbol>

    <symbol viewBox="0 0 24 24" class="sprite" fill="none" id="bed">

        <path stroke="#E73D1E" stroke-linecap="round" stroke-linejoin="round" stroke-width="1.2"
            d="M2 20v-6a3 3 0 0 1 3-3h14a3 3 0 0 1 3 3v6m-4-9H5V6a2 2 0 0 1 1-1h12a2 2 0 0 1 2 1v5h-2Z" />
        <path stroke="#E73D1E" stroke-linecap="round" stroke-linejoin="round" stroke-width="1.2"
            d="M2 20v-1a1 1 0 0 1 1-1h18a1 1 0 0 1 1 1v1M5 11v0a2 2 0 0 1 2-2h4a2 2 0 0 1 1 2m0 0v0m0 0a2 2 0 0 1 2-2h3a2 2 0 0 1 2 2v0" />
    </symbol>

    <symbol viewBox="0 0 24 24" class="sprite" id="floor">
        <path
            d="M17.5 8.65V8.5H17.65H21C21.2827 8.50067 21.52 8.405 21.712 8.213C21.904 8.021 22 7.78333 22 7.5C22 6.94772 21.5523 6.5 21 6.5H20H16.5L17.5 8.65ZM17.5 8.65V12C17.5 12.2833 17.404 12.521 17.212 12.713C17.02 12.905 16.7827 13.0007 16.5 13L17.5 8.65ZM6.5 20.15H6.65V20V16.5C6.65 16.2545 6.73152 16.0561 6.89388 15.8943C7.05655 15.7322 7.25537 15.6506 7.50036 15.65H11H11.15V15.5V12C11.15 11.7545 11.2315 11.556 11.3939 11.3942C11.5565 11.2322 11.7553 11.1506 12.0002 11.15C12.0002 11.15 12.0003 11.15 12.0004 11.15L15.5 11.15H15.65V11V7.5C15.65 7.25453 15.7315 7.05605 15.8939 6.89425C16.0565 6.73219 16.2553 6.65062 16.5002 6.65H20H21C21.4694 6.65 21.85 7.03056 21.85 7.5C21.85 7.74548 21.7685 7.9444 21.6059 8.10693C21.4434 8.26945 21.2449 8.35058 21.0004 8.35H21H17.5H17.35V8.5V12C17.35 12.2455 17.2685 12.4444 17.1059 12.6069C16.9434 12.7695 16.7449 12.8506 16.5004 12.85H16.5H13H12.85V13V16.5C12.85 16.7455 12.7685 16.9444 12.6059 17.1069C12.4434 17.2695 12.2449 17.3506 12.0004 17.35H12H8.5H8.35V17.5V21C8.35 21.2455 8.26847 21.4444 8.10594 21.6069C7.94342 21.7694 7.74495 21.8506 7.50036 21.85H7.5H4C3.75453 21.85 3.55605 21.7685 3.39425 21.6061C3.23216 21.4435 3.15058 21.2446 3.15 20.9996C3.14943 20.7552 3.23077 20.5568 3.39389 20.3942C3.5573 20.2314 3.75607 20.15 4 20.15H6.5Z"
            fill="#E73D1E" />
    </symbol>

    <symbol viewBox="0 0 24 24" class="sprite" fill="none" id="power">
        <svg xmlns="http://www.w3.org/2000/svg" fill="none" viewBox="0 0 24 24">
            <path stroke="#E73D1E" stroke-width="1.2"
                d="M15.5 3 6 12l6.3 1.4s-2.3 4.6-3.5 8c2.2-1.9 9.2-8.9 9.2-8.9L12.5 11s2-4.5 3-8Z" />
            <path fill="#E73D1E" fill-rule="evenodd"
                d="M12 1h1.2c.4.1.6.5.5.9-.1.2-.4.4-.7.4l-1-.1a9.8 9.8 0 0 0-5.8 17.7c.3.2.4.5.3.8-.2.3-.6.5-1 .2A11 11 0 0 1 12 1Zm-1.4 21.2c-.2.3 0 .7.5.8h.9a11 11 0 0 0 6.6-19.8.6.6 0 0 0-.8.3c-.2.2 0 .5.2.7a9.8 9.8 0 0 1-6.8 17.6c-.3 0-.5.1-.6.4Z"
                clip-rule="evenodd" />
        </svg>
    </symbol>

<g class="sprite" id="play" fill="none" viewBox="0 0 20 20">
  <path stroke="#E73D1E" d="m6 2 12 8-12 8V2Z"/>
</g>

    <g class="sprite" id="filter" fill="none">
        <path stroke="#E73D1E" stroke-linecap="round" stroke-linejoin="round" stroke-miterlimit="10" stroke-width="1.2"
            d="M17 22v-7m0-10V2m0 9a3 3 0 1 0 0-6 3 3 0 0 0 0 6ZM7 22v-3M7 9V2m0 17a3 3 0 1 0 0-6 3 3 0 0 0 0 6Z" />
    </g>

    <g class="sprite" id="arrow-right" fill="none" viewBox="0 0 24 24">
        <path fill="#E73D1E"
            d="M1.5 11.4a.6.6 0 1 0 0 1.2v-1.2Zm21.4 1c.3-.2.3-.6 0-.8l-3.8-3.8a.6.6 0 1 0-.8.8l3.4 3.4-3.4 3.4a.6.6 0 1 0 .8.8l3.8-3.8Zm-21.4.2h21v-1.2h-21v1.2Z" />
    </g>

    <g class="sprite" id="arrow-left" fill="none" viewBox="0 0 36 36">
        <path fill="#E73D1E"
            d="M34 17a1 1 0 0 1 0 2v-2ZM0 19v-2l5-4a1 1 0 1 1 1 1l-4 4 4 4a1 1 0 0 1-1 1l-5-4Zm34 0H1v-2h33v2Z" />
    </g>

    <g class="sprite" id="arrow-down" fill="none" viewBox="0 0 24 24">
        <path fill="#E73D1E"
            d="M12.6 1.5a.6.6 0 1 0-1.2 0h1.2Zm-1 21.4c.2.3.6.3.8 0l3.8-3.8a.6.6 0 1 0-.8-.8L12 21.7l-3.4-3.4a.6.6 0 1 0-.8.8l3.8 3.8Zm-.2-21.4v21h1.2v-21h-1.2Z" />
    </g>

    <g class="sprite" id="arrow-right-black" fill="none" viewBox="0 0 24 24">
        <path fill="#1A1A1A"
            d="M2 11a1 1 0 1 0 0 2v-2Zm21 1-4-4a1 1 0 1 0-1 1l4 3-4 3a1 1 0 1 0 1 1l4-4ZM2 13h21v-2H2v2Z" />
    </g>

    <g class="sprite" id="phone" fill="none" viewBox="0 0 24 24">
        <path stroke="#E73D1E" stroke-miterlimit="10" stroke-width="1.2"
            d="M22 18.3c0 .4-.1.8-.3 1.1-.1.4-.4.7-.7 1-.4.6-1 1-1.6 1.2a5 5 0 0 1-2 .4c-1 0-2-.2-3.2-.7a28.8 28.8 0 0 1-9.5-8c-.8-1.2-1.5-2.4-2-3.5A8.4 8.4 0 0 1 2 6.5c0-.6.1-1.3.4-1.9C2.6 4 3 3.4 3.5 3a3 3 0 0 1 2-.9c.4 0 .7 0 .9.2l.7.5L9.4 6l.4.7.1.6c0 .3 0 .5-.2.7l-.5.7-.8.8-.2.4v.3l.2.2.9 1.2a34.2 34.2 0 0 0 3 3l1.3 1h.2l.2.1.4-.1.8-.8.7-.6.7-.2c.2 0 .4 0 .6.2.3 0 .5.2.8.4l3.3 2.3.5.7.2.7Z" />
    </g>

    <g class="sprite" id="phone-black" fill="none" viewBox="0 0 24 24">
        <path stroke="rgba(26, 26, 26, 1)" stroke-miterlimit="10" stroke-width="1.2"
            d="M22 18.3c0 .4-.1.8-.3 1.1-.1.4-.4.7-.7 1-.4.6-1 1-1.6 1.2a5 5 0 0 1-2 .4c-1 0-2-.2-3.2-.7a28.8 28.8 0 0 1-9.5-8c-.8-1.2-1.5-2.4-2-3.5A8.4 8.4 0 0 1 2 6.5c0-.6.1-1.3.4-1.9C2.6 4 3 3.4 3.5 3a3 3 0 0 1 2-.9c.4 0 .7 0 .9.2l.7.5L9.4 6l.4.7.1.6c0 .3 0 .5-.2.7l-.5.7-.8.8-.2.4v.3l.2.2.9 1.2a34.2 34.2 0 0 0 3 3l1.3 1h.2l.2.1.4-.1.8-.8.7-.6.7-.2c.2 0 .4 0 .6.2.3 0 .5.2.8.4l3.3 2.3.5.7.2.7Z" />
    </g>

    <g class="sprite" id="tg" fill="none" viewBox="0 0 24 24">
        <path fill="#E73D1E"
            d="m21.7 2.4-19.9 8c-1.4.5-1.4 1.3-.2 1.6l5 1.7 12-7.8c.5-.3 1-.1.6.3l-9.6 9-.4 5.4c.5 0 .8-.3 1-.6l2.5-2.5 5.2 4c1 .5 1.6.2 1.9-1L23.2 4c.3-1.4-.6-2-1.5-1.6Z" />
    </g>

    <g class="sprite" id="tg" viewBox="0 0 24 24">
        <path fill="#E73D1E"
            d="M12 2a10 10 0 1 1-5 18.6L2 22l1.4-5A10 10 0 0 1 12 2ZM8.6 7.3h-.2a1 1 0 0 0-.4.1l-.3.2-.2.3c-.4.5-.6 1.1-.6 1.7 0 .5.1 1 .3 1.4.4 1 1.1 1.9 2 2.8l.6.6c1.2 1 2.5 1.7 3.9 2l.6.1h.5c.3 0 .6 0 .8-.2l.4-.2.2-.1.3-.3.2-.3.2-.7v-.4l-.2-.3-.6-.2-1.4-.7h-.2a.5.5 0 0 0-.3.1l-.8 1a.3.3 0 0 1-.4 0h-.4a6 6 0 0 1-1.6-1l-.4-.4-1-1.3v-.1l-.2-.2.1-.3.4-.4.2-.4c.1-.1.2-.3.1-.5l-.9-2c0-.2-.2-.3-.3-.3a3.3 3.3 0 0 0-.6 0h.2Z" />
    </g>

    <g class="sprite" id="money" fill="none" viewBox="0 0 24 24">
        <path stroke="#E73D1E" stroke-width="1.2"
            d="M5 6.7h15c1.3 0 2.4 1.1 2.4 2.4v10c0 1.4-1 2.4-2.4 2.4H5c-1.3 0-2.4-1-2.4-2.4v-10c0-1.3 1-2.4 2.4-2.4Z" />
        <path fill="#E73D1E"
            d="M17.9 4.6a.6.6 0 1 0 1.2 0h-1.2Zm-15.3 3h.6-.6Zm13.9-6.5-.1-.5.1.5Zm2 1.5h.6-.6ZM2.6 10.1h.6v-.2a3340.9 3340.9 0 0 0 0-2.3H2A1724.4 1724.4 0 0 1 2 10v.2h.6Zm.6-2.5c0-1 .4-1.6.9-2 .6-.4 1.3-.6 2-.9l-.3-1.1c-.7.2-1.7.5-2.4 1-.8.7-1.4 1.6-1.4 3h1.2Zm3-2.9c3.6-1.2 7-2 10.5-3L16.3.6c-3.4 1-6.8 1.7-10.5 3l.4 1.1Zm10.4-3h1.1l.1.3.1.7 1.2-.1v-.8l-.4-.8c-.5-.7-1.3-.7-2.3-.4l.2 1.1Zm1.3 1v2h1.2V2.6h-1.2Z" />
        <circle cx="19.5" cy="13.6" r="1.5" fill="#E73D1E" />
    </g>

    <g class="sprite" id="height" fill="none" viewBox="0 0 24 24">
        <path stroke="#E73D1E" stroke-linecap="round" stroke-width="1.2" d="M4.5 20h18M4.6 1v18.9" />
        <path fill="#E73D1E"
            d="M11.4 22a.6.6 0 1 0 1.2 0h-1.2Zm1-19.4a.6.6 0 0 0-.8 0L7.8 6.4a.6.6 0 1 0 .8.8L12 3.8l3.4 3.4a.6.6 0 1 0 .8-.8l-3.8-3.8Zm.2 19.4V3h-1.2v19h1.2Z" />
    </g>

    <g class="sprite" id="x" fill="none" viewBox="0 0 22 22">
        <path stroke="#E73D1E" stroke-linecap="round" stroke-linejoin="round" stroke-width="1.5"
            d="M21 1 1 21M1 1l20 20" />
    </g>

    <g class="sprite" id="sorting" fill="none" viewBox="0 0 16 16">
        <path stroke="#E73D1E" stroke-linecap="round" stroke-linejoin="round" stroke-width="1.2"
            d="M2 8h7.5M2 4.5h12m-12 7h3" />
    </g>

    <g class="sprite" id="mail" fill="none" viewBox="0 0 28 29">
        <path stroke="#e73d1e" stroke-linecap="round" stroke-linejoin="round" stroke-miterlimit="10" stroke-width="1.5"
            d="M19 23H9c-3 0-5-1-5-5v-7c0-3 2-5 5-5h10c3 0 5 2 5 5v7c0 4-2 5-5 5Z" />
        <path stroke="#e73d1e" stroke-linecap="round" stroke-linejoin="round" stroke-miterlimit="10" stroke-width="1.5"
            d="m19 12-3 2h-4l-3-2" />
    </g>

    <g class="sprite" id="filter-white" fill="none" viewBox="0 0 20 20">
        <path stroke="#E3E2E2" stroke-linecap="round" stroke-linejoin="round" stroke-miterlimit="10" stroke-width="1.2"
            d="M14.2 18.3v-5.8m0-8.3V1.7m0 7.5a2.5 2.5 0 1 0 0-5 2.5 2.5 0 0 0 0 5Zm-8.4 9.1v-2.5m0-8.3V1.7m0 14.1a2.5 2.5 0 1 0 0-5 2.5 2.5 0 0 0 0 5Z" />
    </g>

    <g class="sprite" id="download" viewBox="0 0 256 256">
        <g fill="#e73d1e" stroke-miterlimit="10" stroke-width="0">
            <path
                d="M188 126c-3-2-6-1-8 1l-47 55V7a6 6 0 0 0-11 0v175l-46-55a6 6 0 1 0-9 7l57 67v1h2v1h1a6 6 0 0 0 2 0l1-1h1l1-1 56-67c2-2 2-6 0-8z" />
            <path d="M233 254H23c-3 0-6-2-6-5v-62a6 6 0 0 1 12 0v56h198v-56a6 6 0 0 1 11 0v62c0 3-2 5-5 5z" />
        </g>
    </g>

    <g class="sprite" id="gr" fill="none" viewBox="0 0 627 406">
        <path fill="#fff" fill-opacity=".1"
            d="M612 353.8c-14-4-26.3-10.5-37.2-20.2-26.1-23.2-44.4-54.9-64.6-83L492.5 226l-30.8-43.3a3 3 0 0 1 1.4-4.5c8.2-3.3 25-14.7 27-16.1 13-10 23.6-22.9 31-37.5a96.7 96.7 0 0 0 9.6-44.1c0-25-10.2-44.3-31.2-59.1A117 117 0 0 0 427.4 0h-123l-39.2.1v6h3c18.8 0 34 10.1 38.6 28.6 2.3 9.3 2 19 1.8 28.6.1-3.3-25.8-12.7-29.2-14A244 244 0 0 0 175 32.7 181.4 181.4 0 0 0 70.4 71a169.8 169.8 0 0 0-48 57.8A222 222 0 0 0 0 229.4c0 20.7 3 38.6 8.7 55 22.7 64.4 78.8 104.3 143.9 117.2 6.1 1.2 24.3 4.5 48.1 3.8 56.3-1.6 101.8-28.6 148-57.8V220.8H265v5.9h.7c6.4-.1 22.8.5 33.4 12 5.7 6.2 9.8 13.5 9.8 33.6 0 36.6-.5 49.3-1.6 58.2-2.9 18.3-16.5 34.3-40.5 47.7-27.3 15.2-44.3 19.2-71 19-6.3 0-30.4-1-56-11.9-71-30-102.7-112.6-102.7-185 0-51 15.4-91.6 45.6-120.6 13.7-13.1 29-24.6 46.7-31.7 35.9-14.3 79-10.7 114.5 3.4a191.9 191.9 0 0 1 34.2 18c22.7 17.3 41.7 43 50.6 77.1H349V6.1h35.4c36.3 0 64 9.8 82.5 29a92 92 0 0 1 27.8 64.7 82 82 0 0 1-21.4 58.3c-14.1 15-37.4 22.7-69.2 22.7h-55v6.2h46.3c24.4 0 44 24.5 55.4 43 17 28 34.7 55.6 53.9 82 15.9 22 34.2 43.8 62.3 48.8 19.4 3.5 40 1.5 59.5 1.5v-6c0 .7-11.4-1.8-14.4-2.5Z" />
    </g>

    <g class="sprite" id="geo" fill="none" viewBox="0 0 14 17">
        <path fill="#E73D1E"
            d="M11.7 2.4A6.7 6.7 0 0 0 .8 4.5a6.5 6.5 0 0 0 1.5 7.2L7 16.3l4.7-4.6a6.5 6.5 0 0 0 0-9.3ZM7 9.2a2 2 0 0 1-2-2 2 2 0 1 1 2 2Z" />
    </g>

</svg>